<svg width="454" height="439" viewBox="0 0 454 439" fill="none" xmlns="http://www.w3.org/2000/svg">
<path fill-rule="evenodd" clip-rule="evenodd" d="M167.149 205.244C162.909 205.577 158.621 205.746 154.291 205.746C69.0785 205.746 0 139.989 0 58.8732C0 -22.2426 69.0785 -88 154.291 -88C216.774 -88 270.583 -52.6438 294.842 -1.80173C326.315 -17.7145 361.898 -26.6792 399.574 -26.6792C527.94 -26.6792 632 77.3813 632 205.746C632 334.112 527.94 438.172 399.574 438.172C271.209 438.172 167.149 334.112 167.149 205.746C167.149 205.579 167.149 205.411 167.149 205.244Z" fill="#D8D5FF" fill-opacity="0.5"/>
<path fill-rule="evenodd" clip-rule="evenodd" d="M167.149 205.244C162.909 205.577 158.621 205.746 154.291 205.746C69.0785 205.746 0 139.989 0 58.8732C0 -22.2426 69.0785 -88 154.291 -88C216.774 -88 270.583 -52.6438 294.842 -1.80173C326.315 -17.7145 361.898 -26.6792 399.574 -26.6792C527.94 -26.6792 632 77.3813 632 205.746C632 334.112 527.94 438.172 399.574 438.172C271.209 438.172 167.149 334.112 167.149 205.746C167.149 205.579 167.149 205.411 167.149 205.244Z" fill="url(#paint0_linear)" fill-opacity="0.5"/>
<defs>
<linearGradient id="paint0_linear" x1="104.5" y1="-131.328" x2="492" y2="593.672" gradientUnits="userSpaceOnUse">
<stop stop-color="#FF9696"/>
<stop offset="1" stop-color="white" stop-opacity="0"/>
</linearGradient>
</defs>
</svg>
