<svg width="530" height="536" viewBox="0 0 530 536" fill="none" xmlns="http://www.w3.org/2000/svg">
<g clip-path="url(#clip0)">
<path opacity="0.1" d="M53.3093 181.451C50.0107 182.819 46.6252 184.574 44.8125 187.65C42.8925 190.9 43.1223 194.935 43.4798 198.695C46.5946 231.305 54.8004 265.987 40.6305 295.526C33.7523 309.856 22.2479 321.34 13.0975 334.355C3.94704 347.369 -2.96174 363.618 1.28667 378.928C6.47464 397.636 25.8376 408.008 38.8892 422.405C47.432 431.818 53.4217 443.256 61.3926 453.158C69.3634 463.061 80.2858 471.785 93.0106 472.366C111.311 473.208 126.201 457.418 144.145 453.76C162.527 450.016 181.038 459.546 195.943 470.953C210.848 482.361 224.405 496.181 241.771 503.303C260.951 511.175 282.571 509.971 302.761 514.7C321.143 519.011 338.065 528.179 356.315 533.066C374.565 537.954 395.955 537.658 410.095 525.174C428.523 508.849 427.073 479.769 438.843 458.173C449.775 438.108 471.176 426.129 485.581 408.391C511.5 376.464 510.652 327.666 488.644 292.944C466.636 258.222 426.772 237.198 386.008 231.724C367.626 229.26 348.697 229.596 331.024 223.99C283.719 208.99 255.569 155.249 207.274 144.066C176.575 136.97 146.718 149.26 120.569 164.386C97.8717 177.518 76.9309 171.661 53.3093 181.451Z" fill="#6C63FF"/>
<path d="M266.517 522.797C368.605 522.797 451.364 440.112 451.364 338.115C451.364 236.118 368.605 153.433 266.517 153.433C164.428 153.433 81.6697 236.118 81.6697 338.115C81.6697 440.112 164.428 522.797 266.517 522.797Z" fill="url(#paint0_linear)"/>
<path d="M266.517 519.736C366.913 519.736 448.3 438.421 448.3 338.115C448.3 237.808 366.913 156.494 266.517 156.494C166.121 156.494 84.7335 237.808 84.7335 338.115C84.7335 438.421 166.121 519.736 266.517 519.736Z" fill="#6C63FF"/>
<path d="M266.517 482.493C346.326 482.493 411.024 417.853 411.024 338.115C411.024 258.377 346.326 193.736 266.517 193.736C186.707 193.736 122.009 258.377 122.009 338.115C122.009 417.853 186.707 482.493 266.517 482.493Z" fill="#DDE1EC"/>
<path opacity="0.3" d="M270.602 219.245H262.432V346.788H270.602V219.245Z" fill="#535461"/>
<g opacity="0.1">
<path opacity="0.1" d="M390.599 335.054H275.197V345.257H390.599V335.054Z" fill="black"/>
<path opacity="0.1" d="M193.722 296.88L188.985 305.919L261.597 343.91L266.334 334.871L193.722 296.88Z" fill="black"/>
<path opacity="0.1" d="M266.517 355.461C274.977 355.461 281.835 348.608 281.835 340.156C281.835 331.703 274.977 324.85 266.517 324.85C258.056 324.85 251.198 331.703 251.198 340.156C251.198 348.608 258.056 355.461 266.517 355.461Z" fill="black"/>
</g>
<path d="M390.599 333.013H275.197V343.217H390.599V333.013Z" fill="#535461"/>
<path d="M266.368 332.842L193.756 294.851L189.018 303.89L261.63 341.881L266.368 332.842Z" fill="#535461"/>
<path d="M266.517 353.42C274.977 353.42 281.835 346.568 281.835 338.115C281.835 329.662 274.977 322.81 266.517 322.81C258.056 322.81 251.198 329.662 251.198 338.115C251.198 346.568 258.056 353.42 266.517 353.42Z" fill="#535461"/>
<g opacity="0.1">
<path opacity="0.1" d="M133.233 355.461C133.233 275.721 197.929 211.082 277.74 211.082C300.141 211.062 322.239 216.254 342.283 226.246C362.328 236.238 379.768 250.756 393.224 268.65C368.632 224 321.143 193.736 266.506 193.736C186.695 193.736 121.999 258.375 121.999 338.115C121.952 369.44 132.149 399.923 151.038 424.925C139.324 403.646 133.198 379.747 133.233 355.461Z" fill="black"/>
</g>
<path d="M400.035 231.907C398.32 230.26 383.879 241.09 383.879 241.09C383.879 241.09 378.737 242.029 379.963 245.554C381.188 249.08 374.575 268.823 374.575 268.823L371.884 265.063C372.145 260.65 370.93 257.523 369.745 255.574C369.648 255.416 369.551 255.263 369.454 255.12L369.924 254.957C369.745 252.549 365.89 248.881 363.842 247.085C363.842 246.825 363.842 246.575 363.842 246.31C363.97 243.432 365.124 240.397 363.842 237.79C362.392 234.815 358.149 233.321 357.791 230.056C357.577 228.107 358.894 226.347 359.476 224.469C360.865 219.98 357.98 215.398 355.223 211.531C354.289 210.081 353.152 208.772 351.847 207.644C350.604 206.736 349.24 206.008 347.793 205.481C343.754 203.848 339.623 203.027 335.456 201.909C331.458 200.848 327.771 200.343 323.712 201.675C322.749 201.934 321.869 202.439 321.159 203.139C320.194 204.22 320.066 205.761 319.433 207.052C318.412 209.128 316.211 210.368 314.265 211.7C312.32 213.031 310.369 214.858 310.359 217.153C310.359 220.413 314.087 222.464 315.332 225.5C316.497 228.326 315.332 231.474 314.684 234.453C314.413 235.416 314.387 236.431 314.607 237.407C314.864 238.134 315.252 238.808 315.751 239.397C316.522 240.417 317.349 241.366 318.172 242.335L317.794 242.483C310.941 241.779 306.534 250.473 306.534 250.473C306.851 250.539 307.152 250.615 307.448 250.702L307.157 251.08C305.087 253.766 303.394 256.724 302.128 259.87L296.511 267.39C296.511 267.39 295.285 248.585 298.226 244.356C301.168 240.126 295.535 237.54 295.535 237.54C295.535 237.54 283.28 223.908 281.58 225.081C279.88 226.255 285.742 241.065 290.884 243.417C290.884 243.417 291.394 248.116 290.373 251.171C289.755 253.105 286.457 273.502 286.457 273.502C286.457 273.502 283.52 290.659 296.986 282.175C305.733 276.675 311.385 267.206 314.265 261.258C314.466 260.839 314.655 260.44 314.832 260.059C314.965 260.69 315.056 261.329 315.103 261.972L315.613 281.629C315.743 286.491 314.68 291.311 312.519 295.669L306.519 307.826L307.188 308.03L306.785 308.612C302.832 314.422 296.112 327.488 309.945 334.146L328.328 336.498L327.348 341.196C327.348 341.196 319.76 355.532 317.554 365.404C316.184 371.449 314.044 377.294 311.186 382.796L311.753 383.097C311.636 383.229 311.513 383.367 311.396 383.51C310.281 384.762 309.544 386.305 309.271 387.958L306.779 391.489C306.779 391.489 305.799 406.059 307.76 409.59C308.832 411.518 312.391 412.743 315.419 413.457C319.913 414.523 323.538 409.886 321.154 406.064L321.123 406.013H321.077C320.566 403.641 319.004 396.279 319.514 393.484C319.657 392.688 319.79 391.897 319.857 391.091C319.98 390.032 320.302 389.005 320.806 388.066C320.888 387.907 320.975 387.754 321.062 387.601L321.327 387.714C322.149 388.066 322.961 388.397 323.732 388.688C322.537 389.775 321.69 392.025 322.711 396.652C322.711 396.652 322.808 408.228 323.691 410.049C324.575 411.87 334.461 414.278 336.176 412.401C337.892 410.523 335.073 404.054 335.073 404.054L334.986 404.116C334.42 400.366 333.72 393.652 335.441 391.009C336.135 389.943 336.809 388.841 337.412 387.811L337.785 387.173C340.981 388.765 344.362 389.963 346.21 389.132C346.21 389.132 354.288 370.327 353.798 367.98C353.308 365.633 366.283 339.069 366.283 339.069C366.283 339.069 377.297 326.825 363.837 318.387C359.563 315.698 356.448 313.892 354.186 312.673L352.292 302.775C351.318 297.587 351.492 292.248 352.802 287.133L354.845 279.348L355.013 278.685C355.013 278.685 360.155 268.109 359.91 263.171C359.891 262.787 359.934 262.403 360.038 262.033C360.094 262.268 360.155 262.513 360.222 262.768C361.573 267.9 363.352 272.911 365.542 277.746C369.449 286.552 375.244 285.853 378.42 284.603C379.1 284.34 379.704 283.912 380.177 283.359C380.651 282.805 380.979 282.142 381.132 281.43C382.276 275.95 385.416 260.599 385.615 256.36C385.793 253.045 386.203 249.746 386.841 246.488C394.898 241.779 401.751 233.555 400.035 231.907Z" fill="url(#paint1_linear)"/>
<path d="M340.093 382.52C340.093 382.52 339.015 384.678 337.54 387.27C336.963 388.29 336.319 389.387 335.661 390.443C333.327 394.172 335.661 406.054 335.661 406.054L330.554 406.753L325.448 404.202L324.514 395.58V389.275L330.335 382.77L332.888 379.954L340.093 382.52Z" fill="#F8BDC5"/>
<g opacity="0.1">
<path opacity="0.1" d="M340.093 382.52C340.093 382.52 339.015 384.678 337.54 387.27C335.285 386.066 333.106 384.727 331.014 383.26L330.565 382.944L330.325 382.77L332.878 379.954L340.093 382.52Z" fill="black"/>
</g>
<path d="M365.057 338.941C365.057 338.941 352.695 365.271 353.165 367.603C353.635 369.934 345.934 388.576 345.934 388.576C344.178 389.402 340.951 388.214 337.907 386.637C335.612 385.415 333.395 384.052 331.269 382.556L330.82 382.24L330.549 382.046L350.841 325.886L332.888 312.729L331.56 311.754L323.533 305.836L348.043 310.265C348.043 310.265 348.896 310.157 353.405 312.678C355.57 313.887 358.577 315.698 362.734 318.422C375.546 326.825 365.057 338.941 365.057 338.941Z" fill="#5E52AD"/>
<g opacity="0.03">
<path opacity="0.03" d="M365.057 338.941C365.057 338.941 352.695 365.271 353.165 367.603C353.635 369.934 345.934 388.576 345.934 388.576C344.178 389.402 340.951 388.214 337.907 386.637C335.612 385.415 333.395 384.052 331.269 382.556L330.82 382.24L330.549 382.046L350.841 325.886L332.888 312.729L331.56 311.754L323.533 305.836L348.043 310.265C348.043 310.265 348.896 310.157 353.405 312.678C355.57 313.887 358.577 315.698 362.734 318.422C375.546 326.825 365.057 338.941 365.057 338.941Z" fill="black"/>
</g>
<path d="M327.501 387.178C327.501 387.178 321.434 386.244 323.538 396.035C323.538 396.035 323.63 407.513 324.473 409.299C325.315 411.085 334.736 413.493 336.365 411.631C337.994 409.768 335.313 403.361 335.313 403.361C335.313 403.361 328.435 408.371 326.566 403.009C324.697 397.647 327.501 387.178 327.501 387.178Z" fill="#5D3E53"/>
<path d="M323.298 385.316C322.636 385.946 322.098 386.693 321.71 387.52C321.228 388.456 320.922 389.473 320.806 390.52C320.745 391.316 320.617 392.106 320.485 392.892C319.903 396.213 322.134 406.054 322.134 406.054L313.27 407.452L310.007 403.958L309.307 396.269C310.178 393.633 310.649 390.882 310.706 388.107C310.706 386.102 311.727 384.311 312.749 383.005C313.441 382.133 314.235 381.347 315.113 380.663C315.113 380.663 325.167 383.683 323.298 385.316Z" fill="#F8BDC5"/>
<g opacity="0.1">
<path opacity="0.1" d="M323.298 385.316C322.636 385.946 322.098 386.693 321.71 387.52C318.08 385.882 314.265 383.816 312.876 383.051L312.769 382.995C313.461 382.123 314.255 381.337 315.133 380.653C315.133 380.653 325.167 383.683 323.298 385.316Z" fill="black"/>
</g>
<path d="M351.99 331.952C351.99 331.952 346.164 342.905 342.426 351.992C339.975 357.961 334.91 372.174 331.703 381.224L331.233 382.561C329.824 386.566 328.885 389.275 328.885 389.275C328.263 389.279 327.645 389.188 327.051 389.004C326.5 388.856 325.882 388.658 325.223 388.413L324.483 388.132C323.748 387.846 322.951 387.515 322.19 387.168C318.483 385.515 314.531 383.362 313.096 382.576L312.555 382.275C315.291 376.797 317.334 370.999 318.636 365.016C320.735 355.231 327.965 341.038 327.965 341.038L328.9 336.375L311.406 334.044C298.227 327.462 304.63 314.489 308.393 308.729C309.035 307.729 309.728 306.764 310.471 305.836L324.468 308.897C324.468 308.897 326.674 309.601 331.576 311.77L333.827 312.79C336.575 314.05 339.955 315.672 344.04 317.754C357.817 324.713 351.99 331.952 351.99 331.952Z" fill="#5E52AD"/>
<path d="M322.047 405.355C322.546 406.196 322.785 407.165 322.734 408.14C322.683 409.116 322.344 410.055 321.76 410.838C321.175 411.622 320.372 412.215 319.451 412.543C318.53 412.871 317.532 412.919 316.584 412.681C313.719 411.972 310.323 410.758 309.302 408.845C307.438 405.35 308.368 390.902 308.368 390.902L310.819 387.29C310.819 387.29 309.537 403.253 312.57 404.636C315.603 406.019 322.017 405.284 322.017 405.284L322.047 405.355Z" fill="#5D3E53"/>
<path d="M324.529 202.71C323.597 202.969 322.751 203.471 322.078 204.164C321.159 205.236 321.057 206.766 320.434 208.047C319.463 210.087 317.37 211.337 315.511 212.638C313.653 213.939 311.799 215.771 311.789 218.046C311.789 221.281 315.363 223.311 316.527 226.316C317.635 229.122 316.527 232.239 315.909 235.193C315.652 236.149 315.627 237.153 315.838 238.121C316.082 238.839 316.452 239.508 316.931 240.096C319.183 243.157 321.981 245.871 323.487 249.355C324.631 252.003 324.948 254.926 325.249 257.799C325.683 261.931 326.117 266.14 325.331 270.221C325.254 270.465 325.254 270.727 325.331 270.971C325.465 271.205 325.676 271.386 325.928 271.481C327.414 272.203 329.03 272.616 330.68 272.698C332.33 272.779 333.98 272.526 335.529 271.954C337.079 271.382 338.497 270.503 339.698 269.37C340.899 268.237 341.858 266.872 342.518 265.359C343.54 263.048 343.933 260.258 345.955 258.758C346.191 258.563 346.475 258.434 346.777 258.385C347.254 258.398 347.716 258.553 348.105 258.829C350.729 260.247 353.91 260.288 356.836 259.707C358.603 259.355 360.411 258.727 361.58 257.35C363.883 254.615 362.601 250.529 362.754 246.963C362.877 244.111 363.975 241.101 362.754 238.519C361.376 235.57 357.326 234.091 356.989 230.867C356.785 228.938 358.041 227.188 358.598 225.331C359.92 220.878 357.173 216.337 354.549 212.506C353.666 211.076 352.584 209.78 351.337 208.654C350.16 207.758 348.859 207.037 347.476 206.511C343.631 204.894 339.71 204.078 335.732 202.976C331.923 201.889 328.415 201.384 324.529 202.71Z" fill="#85555C"/>
<path d="M344.06 269.267H330.529V247.361C330.931 245.257 331.166 243.124 331.233 240.983C331.233 240.264 331.233 239.529 331.233 238.79C331.106 236.178 330.564 233.571 329.145 231.979C325.412 227.785 341.272 228.484 341.272 228.484C341.759 230.41 342.391 232.296 343.162 234.127C344.311 236.983 345.839 239.672 347.706 242.121C349.349 244.3 351.454 246.089 353.869 247.361C363.183 252.023 344.06 269.267 344.06 269.267Z" fill="#F8BDC5"/>
<g opacity="0.1">
<path opacity="0.1" d="M343.146 234.127C341.772 235.916 339.935 237.297 337.833 238.119C335.73 238.941 333.443 239.173 331.218 238.79C331.09 236.178 330.549 233.571 329.13 231.979C325.397 227.785 341.257 228.484 341.257 228.484C341.744 230.41 342.375 232.296 343.146 234.127Z" fill="black"/>
</g>
<path d="M333.327 238.279C340.154 238.279 345.689 232.75 345.689 225.928C345.689 219.107 340.154 213.577 333.327 213.577C326.499 213.577 320.965 219.107 320.965 225.928C320.965 232.75 326.499 238.279 333.327 238.279Z" fill="#F8BDC5"/>
<path d="M384.64 247.131C384.033 250.363 383.644 253.632 383.476 256.916C383.287 261.115 380.294 276.338 379.202 281.772C379.064 282.468 378.756 283.12 378.305 283.669C377.854 284.218 377.275 284.648 376.618 284.919C373.585 286.159 368.07 286.853 364.363 278.124C362.273 273.321 360.577 268.356 359.292 263.278C358.838 261.571 358.497 259.836 358.271 258.084L366.441 253.656C367.21 254.375 367.861 255.21 368.371 256.13C369.5 258.064 370.659 261.166 370.414 265.538L372.967 269.267C372.967 269.267 379.263 249.692 378.073 246.197C376.883 242.703 381.806 241.769 381.806 241.769C381.806 241.769 395.567 231.055 397.201 232.683C398.835 234.31 392.335 242.468 384.64 247.131Z" fill="#F8BDC5"/>
<path d="M317.702 256.452C317.064 258.275 316.331 260.063 315.506 261.809C312.759 267.711 307.377 277.114 299.043 282.552C286.217 290.939 289.015 273.93 289.015 273.93C289.015 273.93 292.155 253.707 292.747 251.794C293.682 248.763 293.212 244.106 293.212 244.106C288.315 241.774 282.719 227.097 284.348 225.928C285.977 224.76 297.624 238.279 297.624 238.279C297.624 238.279 302.991 240.83 300.177 245.039C297.364 249.248 298.543 267.874 298.543 267.874L303.94 260.431C305.141 257.325 306.754 254.394 308.735 251.717C309.756 250.325 310.471 249.483 310.471 249.483L317.702 256.452Z" fill="#F8BDC5"/>
<g opacity="0.1">
<path opacity="0.1" d="M368.376 256.13C366.661 256.763 360.017 259.441 359.282 263.273C358.828 261.566 358.487 259.831 358.261 258.079L366.431 253.651C367.206 254.37 367.862 255.207 368.376 256.13Z" fill="black"/>
</g>
<g opacity="0.1">
<path opacity="0.1" d="M317.702 256.452C317.064 258.275 316.331 260.063 315.506 261.809C315.19 259.503 313.887 253.605 308.735 251.702C309.756 250.309 310.471 249.468 310.471 249.468L317.702 256.452Z" fill="black"/>
</g>
<g opacity="0.1">
<path opacity="0.1" d="M344.06 269.267H330.529V247.361C330.931 245.257 331.166 243.124 331.233 240.983C334.016 243.667 333.327 247.825 333.327 247.825L340.557 264.15L344.06 249.718L342.896 247.855L347.696 242.152C349.339 244.331 351.443 246.12 353.859 247.391C363.183 252.023 344.06 269.267 344.06 269.267Z" fill="black"/>
</g>
<g opacity="0.1">
<path opacity="0.1" d="M353.619 313.999C353.619 313.999 343.019 313.157 333.822 312.759L332.898 312.719C331.591 312.668 330.345 312.627 329.125 312.596C320.199 312.382 310.104 309.265 308.388 308.719C309.032 307.722 309.727 306.76 310.471 305.836L324.468 308.897C324.468 308.897 326.674 309.601 331.576 311.77L323.533 305.836L348.043 310.265C348.043 310.265 348.896 310.157 353.405 312.678L353.619 313.999Z" fill="black"/>
</g>
<path d="M344.06 250.626L342.896 248.763L348.074 242.575C348.074 242.575 358.751 247.804 361.549 246.656C361.549 246.656 368.315 252.268 368.545 255.513C368.545 255.513 358.751 258.773 358.981 263.676C359.211 268.579 354.334 279.052 354.334 279.052L352.292 287.429C351.035 292.506 350.861 297.79 351.781 302.939L353.645 313.31C353.645 313.31 338.949 312.147 329.135 311.912C319.321 311.678 308.143 307.954 308.143 307.954L313.867 295.919C315.931 291.575 316.942 286.807 316.818 282.001L316.308 262.518C316.308 262.518 315.843 252.733 308.138 251.1C308.138 251.1 312.335 242.478 318.861 243.177C318.861 243.177 328.369 239.213 331.193 241.891C334.016 244.57 333.322 248.769 333.322 248.769L340.552 265.094L344.06 250.626Z" fill="#ED677B"/>
<g opacity="0.1">
<path opacity="0.1" d="M324.406 223.382C326.28 223.382 327.751 221.398 329.625 221.5C330.595 221.551 331.427 222.168 332.229 222.724C335.258 224.82 338.629 226.374 342.191 227.316C343.575 227.683 345.041 227.959 346.43 227.622C347.819 227.285 349.121 226.194 349.279 224.77C349.318 224.143 349.235 223.514 349.034 222.918C347.462 217.445 343.904 212.754 339.056 209.761C337.116 208.572 334.747 207.664 332.597 208.409C330.656 209.077 329.405 210.893 328.001 212.388C326.943 213.508 325.741 214.482 324.427 215.286C323.405 215.903 321.874 216.306 321.286 217.439C320.178 219.551 321.92 223.362 324.406 223.382Z" fill="black"/>
</g>
<path d="M324.406 222.918C326.28 222.918 327.751 220.934 329.625 221.036C330.595 221.087 331.427 221.704 332.229 222.26C335.258 224.356 338.629 225.91 342.191 226.852C343.575 227.219 345.041 227.494 346.43 227.158C347.819 226.821 349.121 225.729 349.279 224.306C349.318 223.679 349.235 223.05 349.034 222.454C347.462 216.981 343.904 212.29 339.056 209.297C337.116 208.108 334.747 207.2 332.597 207.945C330.656 208.613 329.405 210.429 328.001 211.924C326.943 213.043 325.741 214.018 324.427 214.822C323.405 215.439 321.874 215.842 321.286 216.975C320.178 219.107 321.92 222.893 324.406 222.918Z" fill="#85555C"/>
<path opacity="0.05" d="M318.754 276.139C318.754 276.139 330.182 280.333 337.647 277.073L341.38 277.308C341.38 277.308 347.584 281.654 354.145 279.71" fill="black"/>
<path opacity="0.05" d="M372.865 269.15C372.865 269.15 371.001 273.578 371.93 274.976L372.865 269.15Z" fill="black"/>
<path opacity="0.05" d="M298.461 267.752C298.461 267.752 299.396 272.18 298.461 273.578V267.752Z" fill="black"/>
</g>
<path d="M120.986 275.275H18.6702C15.8413 275.271 13.1291 274.146 11.1288 272.146C9.12844 270.146 8.00322 267.433 8 264.605V141.705C8.00322 138.876 9.12844 136.164 11.1288 134.164C13.1291 132.163 15.8413 131.038 18.6702 131.035H120.986C123.814 131.038 126.527 132.163 128.527 134.164C130.527 136.164 131.652 138.876 131.656 141.705V264.605C131.652 267.433 130.527 270.146 128.527 272.146C126.527 274.146 123.814 275.271 120.986 275.275ZM18.6702 132.397C16.2023 132.399 13.8362 133.381 12.0911 135.126C10.3461 136.871 9.36444 139.237 9.36165 141.705V264.605C9.36444 267.072 10.3461 269.439 12.0911 271.184C13.8362 272.929 16.2023 273.91 18.6702 273.913H120.986C123.453 273.91 125.82 272.929 127.565 271.184C129.31 269.439 130.291 267.072 130.294 264.605V141.705C130.291 139.237 129.31 136.871 127.565 135.126C125.82 133.381 123.453 132.399 120.986 132.397H18.6702Z" fill="#3F3D56"/>
<path d="M93.7449 141.137H45.9107C43.6544 141.135 41.4913 140.237 39.8958 138.642C38.3004 137.047 37.4029 134.883 37.4004 132.627V130.804C37.4029 128.548 38.3004 126.385 39.8958 124.789C41.4913 123.194 43.6544 122.297 45.9107 122.294H93.7449C96.0012 122.297 98.1644 123.194 99.7599 124.789C101.355 126.385 102.253 128.548 102.255 130.804V132.627C102.253 134.883 101.355 137.047 99.7599 138.642C98.1644 140.237 96.0012 141.135 93.7449 141.137Z" fill="#CCCCCC"/>
<path d="M116.748 207.998H22.9082C22.2717 207.999 21.6413 207.874 21.053 207.631C20.4647 207.388 19.9301 207.031 19.4798 206.582C19.0294 206.132 18.6721 205.598 18.4284 205.01C18.1846 204.422 18.0591 203.791 18.0591 203.155C18.0591 202.518 18.1846 201.888 18.4284 201.3C18.6721 200.712 19.0294 200.178 19.4798 199.728C19.9301 199.278 20.4647 198.922 21.053 198.679C21.6413 198.436 22.2717 198.311 22.9082 198.312H116.748C118.031 198.313 119.262 198.824 120.169 199.732C121.076 200.64 121.585 201.871 121.585 203.155C121.585 204.438 121.076 205.669 120.169 206.578C119.262 207.486 118.031 207.997 116.748 207.998Z" fill="#6C63FF"/>
<path d="M116.748 228.582H22.9082C22.2717 228.583 21.6413 228.458 21.053 228.215C20.4647 227.972 19.9301 227.616 19.4798 227.166C19.0294 226.716 18.6721 226.182 18.4284 225.594C18.1846 225.006 18.0591 224.376 18.0591 223.739C18.0591 223.103 18.1846 222.472 18.4284 221.884C18.6721 221.296 19.0294 220.762 19.4798 220.312C19.9301 219.862 20.4647 219.506 21.053 219.263C21.6413 219.02 22.2717 218.895 22.9082 218.896H116.748C118.031 218.897 119.262 219.408 120.169 220.316C121.076 221.224 121.585 222.455 121.585 223.739C121.585 225.023 121.076 226.254 120.169 227.162C119.262 228.07 118.031 228.581 116.748 228.582Z" fill="#6C63FF"/>
<path d="M91.6228 187.414H48.0329C47.3963 187.415 46.7659 187.29 46.1776 187.047C45.5893 186.804 45.0547 186.447 44.6044 185.998C44.154 185.548 43.7968 185.014 43.553 184.426C43.3092 183.838 43.1838 183.207 43.1838 182.571C43.1838 181.934 43.3092 181.304 43.553 180.716C43.7968 180.128 44.154 179.594 44.6044 179.144C45.0547 178.694 45.5893 178.337 46.1776 178.094C46.7659 177.851 47.3963 177.727 48.0329 177.727H91.6228C92.2593 177.727 92.8898 177.851 93.4781 178.094C94.0663 178.337 94.6009 178.694 95.0513 179.144C95.5016 179.594 95.8589 180.128 96.1027 180.716C96.3464 181.304 96.4719 181.934 96.4719 182.571C96.4719 183.207 96.3464 183.838 96.1027 184.426C95.8589 185.014 95.5016 185.548 95.0513 185.998C94.6009 186.447 94.0663 186.804 93.4781 187.047C92.8898 187.29 92.2593 187.415 91.6228 187.414Z" fill="#6C63FF"/>
<path d="M338.33 152.981H236.015C233.186 152.978 230.473 151.852 228.473 149.852C226.473 147.852 225.348 145.139 225.344 142.311V19.4109C225.348 16.582 226.473 13.8698 228.473 11.8695C230.473 9.86914 233.186 8.74393 236.015 8.74072H338.33C341.159 8.74393 343.871 9.86914 345.871 11.8695C347.872 13.8698 348.997 16.582 349 19.4109V142.311C348.997 145.139 347.872 147.852 345.871 149.852C343.871 151.852 341.159 152.978 338.33 152.981ZM236.015 10.1024C233.547 10.1051 231.181 11.0868 229.435 12.8318C227.69 14.5769 226.709 16.943 226.706 19.4109V142.311C226.709 144.778 227.69 147.145 229.435 148.89C231.181 150.635 233.547 151.616 236.015 151.619H338.33C340.798 151.616 343.164 150.635 344.909 148.89C346.654 147.145 347.636 144.778 347.638 142.311V19.4109C347.636 16.943 346.654 14.5769 344.909 12.8318C343.164 11.0867 340.798 10.1051 338.33 10.1024H236.015Z" fill="#3F3D56"/>
<path d="M311.089 18.8434H263.255C260.999 18.8409 258.836 17.9435 257.24 16.348C255.645 14.7526 254.747 12.5894 254.745 10.3331V8.51034C254.747 6.25404 255.645 4.09088 257.24 2.49543C258.836 0.899976 260.999 0.00253722 263.255 0H311.089C313.346 0.00253722 315.509 0.899976 317.104 2.49543C318.7 4.09088 319.597 6.25404 319.6 8.51034V10.3331C319.597 12.5894 318.7 14.7526 317.104 16.348C315.509 17.9435 313.346 18.8409 311.089 18.8434Z" fill="#CCCCCC"/>
<path d="M334.092 85.7041H240.252C239.616 85.7048 238.986 85.5801 238.397 85.337C237.809 85.094 237.274 84.7373 236.824 84.2875C236.374 83.8377 236.016 83.3035 235.773 82.7155C235.529 82.1275 235.403 81.4972 235.403 80.8607C235.403 80.2242 235.529 79.5939 235.773 79.0059C236.016 78.4179 236.374 77.8838 236.824 77.4339C237.274 76.9841 237.809 76.6275 238.397 76.3844C238.986 76.1414 239.616 76.0166 240.252 76.0174H334.092C334.728 76.0166 335.359 76.1414 335.947 76.3844C336.535 76.6275 337.07 76.9841 337.52 77.4339C337.971 77.8838 338.328 78.4179 338.572 79.0059C338.816 79.5939 338.941 80.2242 338.941 80.8607C338.941 81.4972 338.816 82.1275 338.572 82.7155C338.328 83.3035 337.971 83.8377 337.52 84.2875C337.07 84.7373 336.535 85.094 335.947 85.337C335.359 85.5801 334.728 85.7048 334.092 85.7041Z" fill="#6C63FF"/>
<path d="M334.092 106.288H240.253C239.616 106.288 238.987 106.163 238.399 105.92C237.811 105.676 237.278 105.319 236.828 104.87C236.378 104.42 236.021 103.886 235.778 103.298C235.534 102.711 235.409 102.081 235.409 101.445C235.409 100.809 235.534 100.179 235.778 99.5914C236.021 99.0038 236.378 98.4699 236.828 98.0201C237.278 97.5704 237.811 97.2136 238.399 96.9702C238.987 96.7268 239.616 96.6015 240.253 96.6015H334.092C334.728 96.6015 335.358 96.7268 335.945 96.9702C336.533 97.2136 337.067 97.5704 337.517 98.0201C337.966 98.4699 338.323 99.0038 338.567 99.5914C338.81 100.179 338.935 100.809 338.935 101.445C338.935 102.081 338.81 102.711 338.567 103.298C338.323 103.886 337.966 104.42 337.517 104.87C337.067 105.319 336.533 105.676 335.945 105.92C335.358 106.163 334.728 106.288 334.092 106.288Z" fill="#6C63FF"/>
<path d="M308.967 65.1199H265.377C264.741 65.1207 264.11 64.9959 263.522 64.7529C262.934 64.5098 262.399 64.1532 261.949 63.7034C261.498 63.2535 261.141 62.7194 260.897 62.1314C260.654 61.5434 260.528 60.9131 260.528 60.2766C260.528 59.6401 260.654 59.0098 260.897 58.4218C261.141 57.8338 261.498 57.2996 261.949 56.8498C262.399 56.4 262.934 56.0433 263.522 55.8003C264.11 55.5572 264.741 55.4325 265.377 55.4333H308.967C310.252 55.4333 311.484 55.9435 312.392 56.8518C313.3 57.7601 313.811 58.992 313.811 60.2766C313.811 61.5611 313.3 62.793 312.392 63.7013C311.484 64.6096 310.252 65.1199 308.967 65.1199Z" fill="#6C63FF"/>
<path d="M198.093 111.298L150.239 139.083L150.922 140.26L198.777 112.476L198.093 111.298Z" fill="#3F3D56"/>
<path d="M200.125 118.755L206.885 106.98L193.307 107.012L200.125 118.755Z" fill="#3F3D56"/>
<defs>
<linearGradient id="paint0_linear" x1="266.517" y1="522.797" x2="266.517" y2="153.433" gradientUnits="userSpaceOnUse">
<stop stop-color="#808080" stop-opacity="0.25"/>
<stop offset="0.54" stop-color="#808080" stop-opacity="0.12"/>
<stop offset="1" stop-color="#808080" stop-opacity="0.1"/>
</linearGradient>
<linearGradient id="paint1_linear" x1="89361" y1="127052" x2="89361" y2="38336.3" gradientUnits="userSpaceOnUse">
<stop stop-color="#808080" stop-opacity="0.25"/>
<stop offset="0.54" stop-color="#808080" stop-opacity="0.12"/>
<stop offset="1" stop-color="#808080" stop-opacity="0.1"/>
</linearGradient>
<clipPath id="clip0">
<rect width="530" height="394" fill="white" transform="translate(0 142)"/>
</clipPath>
</defs>
</svg>
