<svg width="114" height="117" viewBox="0 0 114 117" fill="none" xmlns="http://www.w3.org/2000/svg">
<path d="M2.51734 89.4583L44.9705 114.129C45.8702 114.654 47.3198 114.654 48.2195 114.138L112.726 76.8903C113.625 76.3738 113.625 75.5323 112.726 75.0075L70.2725 50.3365C69.3811 49.82 67.9315 49.82 67.0318 50.3365L2.52568 87.5756C1.62592 88.1004 1.61759 88.9418 2.51734 89.4583Z" fill="#AABAFD"/>
<path d="M52.684 91.9655C52.1767 92.2584 52.1796 92.7356 52.6837 93.0285L63.1485 99.11C63.6525 99.4029 64.4763 99.4062 64.9836 99.1133L85.6057 87.2071C86.113 86.9142 86.11 86.437 85.606 86.1441L75.1411 80.0626C74.6371 79.7697 73.8133 79.7664 73.3061 80.0593L52.684 91.9655Z" fill="#2E4277"/>
<path d="M1.85095 88.5251L1.85929 91.0084C1.85929 91.3417 2.0842 91.6832 2.52575 91.9415L44.9789 116.613C45.8786 117.129 47.3282 117.129 48.228 116.613L112.734 79.3734C113.184 79.1152 113.409 78.7737 113.409 78.4237L113.401 75.9487C113.401 76.2903 113.176 76.6319 112.726 76.8901L48.2196 114.138C47.3199 114.654 45.8703 114.654 44.9706 114.129L2.51741 89.4581C2.06757 89.1999 1.85095 88.8667 1.85095 88.5251Z" fill="#798FFE"/>
<path d="M66.9061 1.21306C67.805 0.694094 68.5361 1.11069 68.539 2.1436L68.654 47.5265C68.6569 48.5534 67.9306 49.8175 67.0317 50.3365L3.45519 87.0389C2.55629 87.5579 1.82521 87.1352 1.82229 86.1084L1.70728 40.7255C1.70436 39.6926 2.43069 38.4345 3.32959 37.9155L66.9061 1.21306Z" fill="#1B2A4F"/>
<path d="M0 39.7362L0.116634 85.1175C0.116634 85.6256 0.299934 85.9922 0.591508 86.1588L2.29664 87.1504C2.00502 86.9838 1.82176 86.6173 1.82176 86.1091L1.70513 40.7279C1.70513 39.6948 2.42992 38.4369 3.32968 37.912L66.9065 1.21372C67.3564 0.955464 67.7646 0.930504 68.0645 1.09708L66.3594 0.105483C66.0678 -0.061145 65.6513 -0.036185 65.2014 0.222068L1.62455 36.9287C0.724791 37.4453 0 38.7032 0 39.7362Z" fill="#3864FF"/>
<path d="M4.00195 40.1719L4.11259 84.0147L66.3594 48.0799L66.2488 4.23718L4.00195 40.1719Z" fill="#3864FF"/>
<path d="M4.00195 40.1719L4.02053 47.5256L66.2673 11.5909L66.2488 4.23718L4.00195 40.1719Z" fill="#AABAFD"/>
<path d="M55.9855 12.9372C56.5856 12.5907 57.0735 12.8569 57.0754 13.5464C57.0774 14.2359 56.5927 15.0755 55.9926 15.422C55.4028 15.7625 54.9149 15.4844 54.913 14.7949C54.911 14.1053 55.3957 13.2777 55.9855 12.9372Z" fill="white"/>
<path d="M59.4515 10.9361C60.0413 10.5956 60.5291 10.8617 60.5311 11.5512C60.5331 12.2408 60.0484 13.0804 59.4586 13.4209C58.8585 13.7673 58.3706 13.4892 58.3687 12.7997C58.3667 12.1102 58.8514 11.2825 59.4515 10.9361Z" fill="white"/>
<path d="M62.9074 8.9408C63.5075 8.59433 63.9953 8.86046 63.9973 9.55C63.9992 10.2395 63.5145 11.0791 62.9144 11.4256C62.3143 11.7721 61.8264 11.494 61.8245 10.8045C61.8225 10.1149 62.3073 9.28726 62.9074 8.9408Z" fill="white"/>
<path d="M15.5359 86.4127L11.4612 88.7807L9.70581 87.7673L13.7806 85.3993L15.5359 86.4127Z" fill="#3864FF"/>
<path d="M59.3799 60.9334L55.2995 63.3046L53.5442 62.2912L57.6245 59.9199L59.3799 60.9334Z" fill="#3864FF"/>
<path d="M70.341 54.5635L66.2607 56.9347L64.5054 55.9213L68.5857 53.55L70.341 54.5635Z" fill="#3864FF"/>
<path d="M63.0279 69.3918L58.9531 71.7597L55.33 69.6679L59.4047 67.2999L63.0279 69.3918Z" fill="#3864FF"/>
<path d="M83.1255 68.2969L79.0452 70.6681L75.4164 68.573L79.4967 66.2018L83.1255 68.2969Z" fill="#3864FF"/>
<path d="M88.6088 65.1106L84.5285 67.4818L76.3313 62.7492L80.4117 60.3779L88.6088 65.1106Z" fill="#3864FF"/>
<path d="M74.9094 57.2011L67.3859 61.5732L63.7571 59.4781L71.2805 55.106L74.9094 57.2011Z" fill="#3864FF"/>
<path d="M65.9886 62.3853L61.9082 64.7565L58.2794 62.6614L62.3597 60.2902L65.9886 62.3853Z" fill="#3864FF"/>
<path d="M79.4722 59.8355L69.9086 65.3933L66.2854 63.3014L75.849 57.7437L79.4722 59.8355Z" fill="#3864FF"/>
<path d="M68.511 66.2051L64.4307 68.5763L60.8075 66.4845L64.8878 64.1133L68.511 66.2051Z" fill="#3864FF"/>
<path d="M73.0796 68.8428L68.9993 71.214L65.3705 69.1189L69.4508 66.7477L73.0796 68.8428Z" fill="#3864FF"/>
<path d="M60.5053 65.5718L56.425 67.943L52.7961 65.8479L56.8765 63.4767L60.5053 65.5718Z" fill="#3864FF"/>
<path d="M53.8966 64.12L49.8219 66.488L48.0665 65.4746L52.1413 63.1066L53.8966 64.12Z" fill="#3864FF"/>
<path d="M48.419 67.3032L44.3387 69.6745L42.5834 68.661L46.6637 66.2898L48.419 67.3032Z" fill="#3864FF"/>
<path d="M51.1576 81.5824L47.0773 83.9536L43.4485 81.8585L47.5288 79.4873L51.1576 81.5824Z" fill="#3864FF"/>
<path d="M42.9357 70.4898L38.8609 72.8577L37.1056 71.8443L41.1803 69.4763L42.9357 70.4898Z" fill="#3864FF"/>
<path d="M49.5444 71.9416L45.4697 74.3096L41.8408 72.2145L45.9156 69.8466L49.5444 71.9416Z" fill="#3864FF"/>
<path d="M37.458 73.673L33.3776 76.0442L31.6223 75.0308L35.7027 72.6595L37.458 73.673Z" fill="#3864FF"/>
<path d="M44.0667 75.1249L39.9863 77.4961L36.3575 75.401L40.4379 73.0298L44.0667 75.1249Z" fill="#3864FF"/>
<path d="M52.0668 75.7615L47.9921 78.1295L44.3689 76.0377L48.4436 73.6697L52.0668 75.7615Z" fill="#3864FF"/>
<path d="M31.9803 76.8563L27.9 79.2276L26.1447 78.2141L30.225 75.8429L31.9803 76.8563Z" fill="#3864FF"/>
<path d="M38.5888 78.3082L34.5084 80.6795L30.8796 78.5844L34.96 76.2131L38.5888 78.3082Z" fill="#3864FF"/>
<path d="M56.6351 78.3992L52.5603 80.7671L48.9315 78.6721L53.0063 76.3041L56.6351 78.3992Z" fill="#3864FF"/>
<path d="M46.5891 78.9449L42.5088 81.3161L38.8856 79.2243L42.966 76.853L46.5891 78.9449Z" fill="#3864FF"/>
<path d="M26.497 80.0429L22.4167 82.4141L20.6614 81.4006L24.7417 79.0294L26.497 80.0429Z" fill="#3864FF"/>
<path d="M33.1056 81.4948L29.0253 83.866L25.3965 81.7709L29.4768 79.3997L33.1056 81.4948Z" fill="#3864FF"/>
<path d="M41.1113 82.1282L37.031 84.4995L33.4078 82.4076L37.4882 80.0364L41.1113 82.1282Z" fill="#3864FF"/>
<path d="M27.6278 84.6781L23.5475 87.0493L19.9187 84.9542L23.999 82.583L27.6278 84.6781Z" fill="#3864FF"/>
<path d="M45.6797 84.7656L41.5994 87.1368L37.9706 85.0418L42.0509 82.6705L45.6797 84.7656Z" fill="#3864FF"/>
<path d="M35.6283 85.3147L31.548 87.686L27.9248 85.5941L32.0051 83.2229L35.6283 85.3147Z" fill="#3864FF"/>
<path d="M40.1966 87.9523L36.1162 90.3235L32.4874 88.2284L36.5678 85.8572L40.1966 87.9523Z" fill="#3864FF"/>
<path d="M61.4382 80.9001L40.6844 92.961L37.0555 90.8659L57.8094 78.8051L61.4382 80.9001Z" fill="#3864FF"/>
<path d="M34.7188 91.1355L30.6384 93.5067L27.0096 91.4117L31.09 89.0404L34.7188 91.1355Z" fill="#3864FF"/>
<path d="M30.1505 88.4979L20.5924 94.0525L16.9692 91.9607L26.5273 86.4061L30.1505 88.4979Z" fill="#3864FF"/>
<path d="M29.2355 94.322L25.1608 96.69L21.532 94.5949L25.6067 92.2269L29.2355 94.322Z" fill="#3864FF"/>
<path d="M39.2871 93.7731L29.729 99.3276L26.1002 97.2325L35.6583 91.678L39.2871 93.7731Z" fill="#3864FF"/>
<path d="M21.0191 83.2262L16.9388 85.5974L15.1835 84.584L19.2638 82.2128L21.0191 83.2262Z" fill="#3864FF"/>
<path d="M64.8577 57.7501L60.7774 60.1213L59.0221 59.1079L63.1024 56.7367L64.8577 57.7501Z" fill="#3864FF"/>
<path d="M55.0276 68.7551L50.9473 71.1263L47.3185 69.0313L51.3988 66.66L55.0276 68.7551Z" fill="#3864FF"/>
<path d="M66.6868 77.8502L62.6065 80.2215L58.9777 78.1264L63.058 75.7551L66.6868 77.8502Z" fill="#3864FF"/>
<path d="M62.1186 75.2125L58.0382 77.5838L54.4094 75.4887L58.4898 73.1174L62.1186 75.2125Z" fill="#3864FF"/>
<path d="M57.5501 72.575L53.4697 74.9462L49.8466 72.8544L53.9269 70.4832L57.5501 72.575Z" fill="#3864FF"/>
<path d="M77.648 71.4802L73.5677 73.8515L69.9388 71.7564L74.0192 69.3851L77.648 71.4802Z" fill="#3864FF"/>
<path d="M72.1645 74.6669L68.0897 77.0349L64.4609 74.9398L68.5357 72.5718L72.1645 74.6669Z" fill="#3864FF"/>
<path d="M22.1445 87.8646L16.0296 91.4183L12.4008 89.3231L18.5157 85.7695L22.1445 87.8646Z" fill="#3864FF"/>
<path d="M9.78839 51.7604C10.5784 51.3043 11.0449 51.4041 11.3787 51.7065L10.9303 52.4336C10.6435 52.1445 10.2753 52.168 9.82554 52.4277C8.91033 52.9561 8.32989 54.106 8.33303 55.2116C8.33615 56.3126 8.92125 56.7986 9.83643 56.2702C10.2862 56.0105 10.6533 55.596 10.9375 54.9863L11.3886 55.1985C11.0576 55.8892 10.5932 56.5265 9.80319 56.9826C8.51253 57.7278 7.64102 57.0876 7.63686 55.6135C7.63269 54.1394 8.49773 52.5056 9.78839 51.7604Z" fill="#D9DDF6"/>
<path d="M12.6981 54.1543C12.9641 54.0008 13.1917 54.1305 13.1925 54.4361C13.1934 54.7462 12.9673 55.1333 12.7013 55.2869C12.4315 55.4427 12.2078 55.3152 12.2069 55.0051C12.2061 54.6995 12.4283 54.3102 12.6981 54.1543Z" fill="#D9DDF6"/>
<path d="M13.036 50.905C13.2288 50.5733 13.2293 50.2139 13.0372 50.1023C12.845 49.9906 12.533 50.169 12.3402 50.5007C12.1475 50.8324 12.147 51.1918 12.3391 51.3035C12.5312 51.4151 12.8432 51.2367 13.036 50.905Z" fill="#D9DDF6"/>
<path d="M14.1945 47.2358L16.3389 53.2903L15.8109 53.5951L13.6665 47.5407L14.1945 47.2358Z" fill="#D9DDF6"/>
<path d="M18.3736 44.1255L22.1169 46.2632L18.3979 52.7093L17.7975 52.3672L20.9279 46.9497L17.7771 45.1586L18.3736 44.1255Z" fill="#D9DDF6"/>
<path d="M26.2969 46.2716L26.3014 47.8805L22.3864 50.1409L22.3818 48.5319L26.2969 46.2716Z" fill="#D9DDF6"/>
</svg>
