<svg width="209" height="174" viewBox="0 0 209 174" fill="none" xmlns="http://www.w3.org/2000/svg">
<rect x="37.9329" y="10.497" width="84.5939" height="76.328" fill="white"/>
<path d="M81.5511 27.2158C75.9261 14.5205 88.5911 13.7491 90.5574 19.0533C94.401 25.7622 92.773 28.67 90.1328 29.5589C90.7845 32.115 92.5076 37.892 90.814 39.9476C88.6969 42.517 87.2895 43.7424 85.8919 40.3645C84.7738 37.6621 83.8564 32.0602 83.5374 29.597C82.7097 29.8344 81.1538 29.6904 81.5511 27.2158Z" fill="#FFFAE2"/>
<path d="M86.8387 29.866C87.8606 29.9743 89.0649 29.9184 90.1328 29.5589M90.5574 19.0533C88.5911 13.7491 75.9261 14.5205 81.5511 27.2158M90.5574 19.0533C94.401 25.7622 92.773 28.67 90.1328 29.5589M90.5574 19.0533C90.5574 19.0533 83.3317 23.1803 87.1147 20.7445C90.8977 18.3087 83.1425 22.1652 83.1425 22.1652L83.9369 26.4268C82.9788 25.876 81.9507 26.3591 81.5511 27.2158M81.5511 27.2158C81.1538 29.6904 82.7097 29.8344 83.5374 29.597C83.8564 32.0602 84.7738 37.6621 85.8919 40.3645C87.2895 43.7424 88.6969 42.517 90.814 39.9476C92.5076 37.892 90.7845 32.115 90.1328 29.5589" stroke="#232540" stroke-width="0.5" stroke-linecap="round" stroke-linejoin="round"/>
<path d="M81.4881 27.3056C75.7283 15.4666 87.9761 12.7615 90.6907 19.0527L83.2095 22.0968L84.0701 26.6968C82.4812 25.8174 81.5424 26.9672 81.4881 27.3056Z" fill="#232540"/>
<rect width="77.735" height="81.4282" rx="28" transform="matrix(-1 0 0 1 122.527 1)" stroke="white" stroke-width="0.5"/>
<path d="M73.6348 85.9456L76.9435 71.5242H93.1564L88.9874 85.9456H73.6348Z" fill="#232540"/>
<path d="M103.005 85.9456L100.149 70.469H87.5286V77.7487L90.3425 83.3076L93.1081 85.9456H103.005Z" fill="#232540"/>
<path d="M89.991 81.1971L90.9583 76.0969" stroke="#3864FF" stroke-width="0.5" stroke-linecap="round" stroke-linejoin="round"/>
<path d="M119.203 38.6411C120.311 37.1862 122.754 34.1491 123.349 32.3711C123.349 32.3711 125.222 28.2663 124.783 27.7166C124.351 27.1776 123.262 29.7811 122.445 30.9029C123.47 29.4864 124.454 25.7478 124.003 25.5506C123.236 25.2152 121.531 29.2032 120.728 30.5887C121.54 29.1531 123.485 25.0173 122.754 24.0436C122.426 23.6074 120.226 27.6894 119.481 29.5847C119.925 28.4139 120.592 25.4843 120.592 24.8781C120.592 22.896 117.946 28.1476 117.259 30.3287L114.961 37.7284L119.203 38.6411Z" fill="#FFFAE2" stroke="#232540" stroke-width="0.5" stroke-linecap="round" stroke-linejoin="round"/>
<path d="M115.133 32.1194C115.021 33.3892 114.223 35.8412 113.676 36.9109L116.045 35.831L118.413 34.751C119.182 33.9462 117.721 32.5824 117.108 31.9149C116.707 29.116 116.735 27.7772 116.071 27.6993C115.06 27.5805 115.294 30.2877 115.133 32.1194Z" fill="#FFFAE2"/>
<path d="M113.676 36.9108C114.223 35.8412 115.021 33.3891 115.133 32.1193C115.294 30.2877 115.06 27.5804 116.071 27.6992C116.735 27.7771 116.707 29.1159 117.108 31.9148C117.868 31.9183 118.477 33.7818 117.708 34.5866" stroke="#232540" stroke-width="0.5" stroke-linecap="round" stroke-linejoin="round"/>
<path d="M106.843 47.1307C101.828 32.8163 93.2779 31.5511 89.6298 32.7079H84.5296C74.4354 34.0092 61.8974 52.0107 63.1725 58.0835C64.1925 62.9417 72.5122 64.5676 76.1248 64.7845L75.2855 72.9401L104.399 74.4583L101.849 54.288C102.451 55.9869 104.697 59.1245 108.862 58.0835C113.027 57.0424 118.432 44.8621 120.416 38.5363L114.387 32.7079L106.843 47.1307Z" fill="#3864FF"/>
<path d="M82.6395 31.371C82.6395 31.371 83.5778 35.3161 84.1509 36.0487L91.111 35.3965L91.5239 30.9517L82.6395 31.371Z" fill="#3864FF"/>
<path d="M74.3372 54.0282C74.3371 51.5251 77.6474 48.3456 77.6474 48.3456L76.7205 56.2606C75.3325 55.6328 74.3372 54.7861 74.3372 54.0282Z" fill="#FFFAE2"/>
<path d="M84.334 58.2225C84.334 58.2225 79.9167 57.7064 76.7205 56.2606M76.7205 56.2606C75.3325 55.6328 74.3372 54.7861 74.3372 54.0282C74.3371 51.5251 77.6474 48.3456 77.6474 48.3456L76.7205 56.2606Z" stroke="#232540" stroke-width="0.5" stroke-linecap="round" stroke-linejoin="round"/>
<path d="M101.481 53.0134C101.481 53.0134 98.9652 43.1365 96.1184 41.1747" stroke="#232540" stroke-width="0.5" stroke-linecap="round" stroke-linejoin="round"/>
<ellipse rx="0.355006" ry="0.842944" transform="matrix(0.911399 -0.413966 0.397763 0.916426 90.2694 22.9826)" fill="#232540"/>
<ellipse rx="0.355006" ry="0.842944" transform="matrix(0.911399 -0.413966 0.397763 0.916426 87.6496 23.5046)" fill="#232540"/>
<path d="M80.7256 59.843C75.4799 62.2844 84.5496 62.7103 86.8001 62.9152C88.7096 63.089 99.7193 60.8518 99.6321 60.3599C99.4894 59.5542 95.2913 60.555 94.6062 60.197C96.1606 59.9011 100.844 58.8155 100.901 58.1502C100.958 57.4848 95.9746 58.7725 94.7157 58.6714C97.0997 57.8665 101.712 56.3394 101.048 55.5667C100.721 55.1851 95.7272 56.9302 93.197 57.3545C95.4329 56.263 100.472 55.3413 99.7926 54.6772C99.3355 54.2301 93.5363 55.3351 90.9974 56.1979C92.1673 55.2157 90.6352 54.2142 89.4342 55.1582C87.2003 56.9141 84.0881 58.9373 80.7256 59.843Z" fill="#FFFAE2" stroke="#232540" stroke-width="0.5" stroke-linecap="round" stroke-linejoin="round"/>
<path d="M89.2994 67.8964L79.3687 65.8907V55.9224H87.578L89.2994 67.8964Z" fill="#3864FF"/>
<path d="M77.9785 64.9199C77.9785 64.9199 81.8184 65.5964 86.7837 64.9199" stroke="#232540" stroke-width="0.5" stroke-linecap="round" stroke-linejoin="round"/>
<path d="M40.2754 44.4401H81.1455L86.2353 70.3042H45.669L40.2754 44.4401Z" fill="white"/>
<path d="M37.2983 44.4401H78.3339L83.4443 70.3042H42.7138L37.2983 44.4401Z" fill="#C9E7FC"/>
<path d="M59.3892 70.2932H66.9516V83.6593H61.0358L59.3892 70.2932Z" fill="#C9E7FC"/>
<rect x="70.645" y="80.8454" width="22.5115" height="1.93458" fill="#C9E7FC"/>
<rect x="96.498" y="79.2626" width="6.85897" height="3.51742" fill="#C9E7FC"/>
<rect x="96.498" y="79.2626" width="5.10026" height="3.51742" fill="#C9E7FC"/>
<rect x="1" y="86.825" width="4.39677" height="110.447" transform="rotate(-90 1 86.825)" fill="#C9E7FC" stroke="#C9E7FC" stroke-width="0.5"/>
<rect width="77.3832" height="122.054" rx="28" transform="matrix(-1 0 0 1 208 23.5115)" stroke="white" stroke-width="0.5"/>
<ellipse rx="0.462867" ry="1.03082" transform="matrix(-0.814841 -0.579684 -0.610703 0.791859 168.872 45.2296)" fill="#232540"/>
<ellipse rx="0.462867" ry="1.03082" transform="matrix(-0.814841 -0.579684 -0.610703 0.79186 172.403 47.5106)" fill="#232540"/>
<path d="M169.157 43.9795C166.681 46.837 163.081 52.7445 169.482 54.4211L169.482 62.8033L177.674 62.8033L176.587 57.2042L176.008 54.1561L177.54 53.5846C180.072 52.6957 182.74 47.831 177.921 43.524C175.063 41.392 171.824 41.3922 169.157 43.9795Z" fill="#FFFAE2"/>
<path d="M169.157 43.9795L171.158 45.0937L169.482 47.8499C170.559 46.8912 171.997 47.4904 172.236 47.8499C173.626 49.9353 171.545 51.7235 169.894 51.8505L176.008 54.1561M169.157 43.9795C166.681 46.837 163.081 52.7445 169.482 54.4211M169.157 43.9795C171.824 41.3922 175.063 41.392 177.921 43.524C182.74 47.831 180.072 52.6957 177.54 53.5846L176.008 54.1561M169.482 54.4211C170.371 54.6116 168.568 55.4879 169.482 54.4211ZM169.482 54.4211C168.835 54.9291 170.976 55.0307 169.482 54.4211ZM169.482 54.4211L169.482 62.8033L177.674 62.8033L176.587 57.2042L176.008 54.1561" stroke="#232540" stroke-width="0.5" stroke-linecap="round" stroke-linejoin="round"/>
<path d="M171.997 47.6797C173.914 48.8086 171.85 51.7974 170.199 51.9244L176.008 54.1567L177.54 53.5852C180.072 52.6963 182.74 47.8316 177.921 43.5246C175.063 41.3926 171.824 41.3928 169.157 43.98L171.038 45.2174L169.779 47.2507C169.779 47.2507 171.405 47.3312 171.997 47.6797Z" fill="#232540"/>
<path d="M208 60.8326C208 45.3687 195.464 32.8326 180 32.8326H130.617V83.7987C130.617 99.2627 143.153 111.799 158.617 111.799H180C195.464 111.799 208 99.2627 208 83.7987V60.8326Z" stroke="white" stroke-width="0.5"/>
<path d="M126.244 51.11C125.922 51.5881 130.383 57.6966 132.264 60.1806L133.622 59.5583L136.653 58.1244C136.633 57.4736 136.544 58.3152 136.298 57.4546C135.991 56.3787 136.487 50.7134 135.777 50.2351C135.21 49.8525 134.618 52.4662 134.393 53.8209C133.571 51.2973 131.823 46.3536 131.406 46.7679C130.989 47.1822 131.804 50.686 132.264 52.3861C131.489 50.4735 129.763 46.7039 129.063 46.9269C128.431 47.1281 129.703 50.2614 130.624 52.2579C129.813 50.5979 128.397 48.1494 127.715 48.1494C127.231 48.1494 128.654 52.2128 129.432 53.7801C127.905 51.708 126.647 50.5124 126.244 51.11Z" fill="#FFFAE2" stroke="#232540" stroke-width="0.5" stroke-linecap="round" stroke-linejoin="round"/>
<path d="M194.473 100.756C194.224 102.85 194.272 107.132 195.161 108.53C195.638 109.281 195.937 107.736 195.836 106.374C196.145 108.496 196.906 111.847 197.712 111.896C198.154 111.924 197.643 108.068 197.404 106.524C197.717 108.422 198.228 112.726 199.088 112.703C199.562 112.69 199.574 111.407 199.412 109.843C199.636 111.016 199.917 111.832 200.356 111.622C201.222 111.209 199.702 102.251 198.68 97.6597L194.473 100.756Z" fill="#FFFAE2" stroke="#232540" stroke-width="0.5" stroke-linecap="round" stroke-linejoin="round"/>
<path d="M183.81 165.73L183.211 159.868L190.162 159.868L191.36 171.836L177.699 171.836C178.761 167.5 178.777 165.73 183.81 165.73Z" fill="#51B6FF" stroke="#51B6FF" stroke-width="0.5"/>
<path d="M156.377 165.487L156.368 160.827L163.438 160.228L163.462 171.848L146.202 171.812C147.152 167.028 152.122 165.671 156.377 165.487Z" fill="#51B6FF" stroke="#51B6FF" stroke-width="0.5"/>
<path d="M153.421 162.798C155.702 117.364 161.022 99.5644 163.397 96.3438L179.786 93.9872L164.822 164.212L153.421 162.798Z" fill="#232540"/>
<path d="M180.911 163.493L176.19 114.739L176.19 92.3636C178.866 89.0662 184.688 85.0151 186.576 95.1899C188.465 105.365 190.825 144.965 191.769 163.493L180.911 163.493Z" fill="#232540"/>
<path d="M176.43 110.045L177.388 109.806L178.347 109.566" stroke="#51B6FF" stroke-width="0.5" stroke-linecap="round" stroke-linejoin="round"/>
<path d="M168.042 56.9576L169.6 59.7138L177.03 58.9948L178.108 56.4782L168.042 56.9576Z" fill="#51B6FF" stroke="#51B6FF" stroke-width="0.5"/>
<path d="M200.315 100.097C194.09 61.2475 179.643 55.6613 173.198 57.7244C160.936 57.7244 149.382 66.1355 145.138 70.3411L137.121 55.3441L130.67 59.8064C131.463 63.1644 140.422 78.9108 143.959 80.3391C146.788 81.4817 155.513 76.0543 159.522 73.1977L159.522 98.9068L188.525 98.9068L187.346 87.0044L193.477 102.478L200.315 100.097Z" fill="#51B6FF"/>
<mask id="mask0" mask-type="alpha" maskUnits="userSpaceOnUse" x="130" y="55" width="71" height="48">
<path d="M200.315 100.097C194.09 61.2475 179.643 55.6613 173.198 57.7244C160.936 57.7244 149.382 66.1355 145.138 70.3411L137.121 55.3441L130.67 59.8064C131.463 63.1644 140.422 78.9108 143.959 80.3391C146.788 81.4817 155.513 76.0543 159.522 73.1977L159.522 98.9068L188.525 98.9068L187.346 87.0044L193.477 102.478L200.315 100.097Z" fill="#51B6FF"/>
</mask>
<g mask="url(#mask0)">
<path d="M130.754 87.5285C134.459 80.4265 148.521 59.0374 151.071 66.9516C153.621 73.1071 156.241 77.2566 159.153 77.8229C163.693 78.7056 166.805 74.7499 169.481 71.7031C173.355 67.2904 179.601 56.0797 187.147 59.6308C193.687 62.7084 201.922 68.9875 207.347 60.85" stroke="#FFFAE2" stroke-width="0.5" stroke-linecap="round" stroke-linejoin="round"/>
<path d="M138.499 93.1224C142.06 88.6186 144.815 85.5395 150.547 84.0861C154.278 83.1403 158.404 82.3649 162.261 82.3649C168.514 82.3649 173.094 83.8868 177.991 78.6835C180.696 75.8089 181.062 70.101 184.126 67.5184C186.934 65.1516 191.011 66.4972 194.438 65.5833" stroke="#FFFAE2" stroke-width="0.5" stroke-linecap="round" stroke-linejoin="round"/>
<path d="M157.862 100.007C159.212 97.8722 160.49 95.1415 162.739 93.7918C166.406 91.5913 170.613 90.1227 174.787 89.2736C177.479 88.7262 180.28 88.8326 182.915 88.2935C186.357 87.5896 185.571 85.2541 187.037 82.2361V82.2361C191.626 72.7867 200.561 81.9443 193.425 89.6533C189.533 93.8583 187.024 97.9376 190.595 100.007" stroke="#FFFAE2" stroke-width="0.5" stroke-linecap="round" stroke-linejoin="round"/>
<path d="M131.4 73.1494C132.892 66.8838 139.872 64.596 145.552 63.4916C147.292 63.1533 149.013 63.3537 150.764 63.2286C152.616 63.0963 153.429 61.4478 154.637 60.2404" stroke="#FFFAE2" stroke-width="0.5" stroke-linecap="round" stroke-linejoin="round"/>
</g>
<path d="M187.215 85.5987C187.055 78.6082 183.908 63.1651 179.306 58.7551" stroke="#232540" stroke-width="0.5" stroke-linecap="round" stroke-linejoin="round"/>
<path d="M160.132 73.0158C161.211 72.4166 162.409 71.5777 163.368 70.619" stroke="#232540" stroke-width="0.5" stroke-linecap="round" stroke-linejoin="round"/>
</svg>
