<svg width="125" height="137" viewBox="0 0 125 137" fill="none" xmlns="http://www.w3.org/2000/svg">
<path d="M37.2688 22.8819C34.4479 24.0666 23.5312 28.6082 17.4381 40.3712C16.1405 42.8818 10.0474 54.6448 14.5326 65.0256C20.4846 78.7914 38.5946 75.4346 46.9161 88.3823C54.0529 99.5247 39.2434 110.47 45.6185 123.728C48.9472 130.639 56.6199 136.422 63.7003 136.958C85.844 138.622 125.618 90.9211 109.455 53.4882C97.6635 26.2951 60.0896 13.3756 37.2688 22.8819Z" fill="#C4C4C4"/>
<path opacity="0.09" d="M57.9738 82.2328C56.9583 82.2328 55.9145 82.2046 54.8426 82.1482C39.0176 81.2737 26.098 74.2216 20.287 63.3048C11.0064 45.8719 20.1178 21.5843 34.0811 13.9397C41.1332 10.0469 47.2545 10.1598 51.1473 10.9496C57.8045 12.2754 62.7128 15.3502 64.9695 19.5814C67.3955 24.123 66.0979 28.3825 64.7156 32.8677C63.4745 36.9015 62.2051 41.0482 63.7283 45.5334C65.0823 49.539 68.6084 50.7802 72.3602 52.106C76.1683 53.46 80.1175 54.8422 82.2332 59.2146C84.4617 63.8408 84.1796 70.1595 81.6126 73.9677C78.1147 79.0452 68.8623 82.2328 57.9738 82.2328ZM46.7467 10.8368C43.2771 10.8368 38.9611 11.6266 34.2503 14.2218C20.4281 21.8099 11.4013 45.9001 20.5973 63.1638C26.3519 73.9959 39.1868 80.9634 54.899 81.8379C66.9723 82.5149 77.607 79.2709 81.3587 73.7984C83.8693 70.1031 84.1514 63.8972 81.9511 59.3838C79.8919 55.1243 76.0273 53.7703 72.2755 52.4445C68.4674 51.0905 64.8567 49.8211 63.4462 45.6744C61.8948 41.0764 63.1924 36.8733 64.4335 32.7831C65.7876 28.3543 67.0852 24.1512 64.7156 19.7225C62.5154 15.5758 57.6635 12.5575 51.1191 11.2599C49.8497 11.006 48.3828 10.8368 46.7467 10.8368Z" fill="#AAAAD5"/>
<path d="M31.7112 112.219C30.5547 111.795 29.9623 110.498 30.3854 109.341C30.8085 108.185 32.1061 107.592 33.2627 108.016C34.4192 108.439 35.0116 109.736 34.5885 110.893C34.1371 112.078 32.8395 112.642 31.7112 112.219Z" fill="#C9C7D9"/>
<path opacity="0.1" d="M58.9609 0.540635L2.06408 19.384C0.681852 19.8353 -0.0515725 21.3304 0.399766 22.6844L5.92866 39.3275C6.38 40.7097 7.87505 41.4432 9.22907 40.9918L14.8426 39.13L17.5788 38.2274C18.284 38.6787 20.033 39.8635 20.7382 40.2866C21.387 40.6533 22.2332 40.3712 22.5435 39.6942C22.882 38.9326 23.5873 36.958 23.8694 36.1681L37.6916 31.5701L66.1259 22.1484C67.5081 21.6971 68.2415 20.2021 67.7902 18.848L62.2613 2.20494C61.81 0.822721 60.3431 0.0892966 58.9609 0.540635Z" fill="#3F3F3F"/>
<path opacity="0.1" d="M120.343 48.4672L104.744 46.6054C104.067 46.5208 103.474 47.0003 103.39 47.6773L101.528 63.2767C101.443 63.9537 101.923 64.5461 102.6 64.6307L118.199 66.4925C118.876 66.5771 119.468 66.0976 119.553 65.4205L121.415 49.8212C121.499 49.1724 121.02 48.5518 120.343 48.4672Z" fill="#3F3F3F"/>
<path d="M122.176 64.3204L103.954 62.1484C103.643 62.1201 103.418 61.8381 103.474 61.5278L105.646 43.305C105.674 42.9947 105.956 42.769 106.267 42.8254L124.489 44.9975C124.8 45.0257 125.025 45.3078 124.969 45.6181L122.797 63.8409C122.769 64.123 122.487 64.3486 122.176 64.3204Z" fill="#074EE8"/>
<path d="M105.42 60.1456L107.226 45.0539C107.254 44.8565 107.423 44.7437 107.592 44.7437L122.684 46.549C122.882 46.5772 122.994 46.7465 122.994 46.9157L121.189 62.0073C121.161 62.2048 120.992 62.3176 120.822 62.3176L105.731 60.5123C105.533 60.5123 105.42 60.343 105.42 60.1456Z" fill="#3864FF"/>
<path d="M114.588 54.8424L112.839 56.2246C112.529 56.4785 112.049 56.4221 111.796 56.1118C111.542 55.8015 111.09 55.7451 110.752 55.9989L108.185 58.03C107.677 58.4249 107.903 59.2711 108.552 59.3558L108.862 59.384L114.927 60.1174L118.34 60.5123C118.989 60.5969 119.412 59.8353 119.017 59.3276L115.632 54.9552C115.378 54.6449 114.899 54.5885 114.588 54.8424Z" fill="#51B6FF"/>
<path d="M111.457 51.9087C111.372 52.6139 110.724 53.1216 110.018 53.037C109.313 52.9524 108.805 52.3036 108.89 51.5984C108.975 50.8932 109.624 50.3854 110.329 50.47C111.034 50.5547 111.542 51.2035 111.457 51.9087Z" fill="#51B6FF"/>
<path opacity="0.1" d="M47.0848 54.0734C46.4925 52.1834 44.4896 51.1397 42.5997 51.732L19.5814 59.0099C17.6914 59.6023 16.6477 61.6051 17.2401 63.495L21.9792 78.4738C22.5715 80.3638 24.5743 81.4075 26.4643 80.8152L28.721 80.1099C28.721 80.1099 32.9241 83.0154 34.391 83.8899C35.4347 84.5105 36.8733 84.0591 37.3811 82.9308C38.0863 81.3793 39.8352 76.5839 39.8352 76.5839L49.4826 73.5373C51.3726 72.9449 52.4163 70.9421 51.8239 69.0521L47.0848 54.0734Z" fill="#3F3F3F"/>
<path d="M43.3427 44.1233L18.6602 51.9371C16.6292 52.5859 15.529 54.7297 16.1496 56.7608L21.2272 72.8397C21.876 74.8707 24.0198 75.9709 26.0508 75.3503L28.4486 74.5886C28.4486 74.5886 32.962 77.7198 34.5134 78.6507C35.6418 79.3277 37.1933 78.8199 37.7292 77.6352C38.4909 75.9709 40.3526 70.8087 40.3526 70.8087L50.7052 67.5365C52.7362 66.8877 53.8364 64.7438 53.2158 62.7128L48.1382 46.6339C47.5458 44.6028 45.3738 43.4745 43.3427 44.1233Z" fill="#074EE8"/>
<path d="M43.4277 52.4448L23.3996 58.7917C22.7508 58.9892 22.0456 58.6507 21.8481 57.9737C21.6507 57.3249 22.0174 56.6197 22.6662 56.4222L42.6943 50.0753C43.3431 49.8778 44.0483 50.2163 44.2458 50.8933C44.4432 51.5421 44.0765 52.2473 43.4277 52.4448Z" fill="#51B6FF"/>
<path d="M45.2046 58.1147L25.1765 64.4617C24.5277 64.6591 23.8224 64.3206 23.625 63.6436C23.4275 62.9948 23.7942 62.2896 24.443 62.0921L44.4712 55.7452C45.12 55.5477 45.8252 55.8862 46.0226 56.5632C46.2201 57.1838 45.8534 57.889 45.2046 58.1147Z" fill="#51B6FF"/>
<path d="M36.0084 67.2261L26.9816 70.0751C26.3328 70.2726 25.6276 69.9059 25.4302 69.2571C25.2327 68.6083 25.5994 67.9031 26.2482 67.7056L35.275 64.8566C35.9238 64.6591 36.629 65.0258 36.8265 65.6746C37.0239 66.3234 36.6572 67.0286 36.0084 67.2261Z" fill="#51B6FF"/>
<path d="M78.2057 90.5547L44.9177 95.8572L47.9128 114.66L81.2008 109.358L78.2057 90.5547Z" fill="#3864FF"/>
<path d="M63.0512 102.629L78.1993 90.5841L44.9131 95.8873L63.0512 102.629Z" fill="#51B6FF"/>
<path d="M84.9693 122.853H104.01C104.574 122.853 105.054 122.374 105.054 121.81C105.054 121.245 104.574 120.766 104.01 120.766H84.9693C84.4051 120.766 83.9255 121.245 83.9255 121.81C83.9255 122.402 84.3769 122.853 84.9693 122.853Z" fill="#E2E2E1"/>
<path d="M91.2599 118.425L90.3572 112.924L92.8395 112.162L93.2345 118.03L91.2599 118.425Z" fill="#D7DDE9"/>
<path d="M93.3191 117.437C93.4883 117.465 93.6294 117.522 93.7704 117.635C94.6449 118.368 97.3247 119.666 98.6787 119.863C100.146 120.089 100.23 120.794 98.1427 120.794C96.0835 120.794 94.5603 120.597 93.6576 120.625C92.7267 120.653 92.9806 120.794 90.7239 120.794C88.9749 120.794 89.5391 118.566 90.1597 117.55C90.3572 117.24 90.611 117.071 90.9778 117.099L93.3191 117.437Z" fill="#FFFAE2"/>
<path d="M83.2769 113.291L86.7183 108.918L88.9468 110.244L84.913 114.475L83.2769 113.291Z" fill="#D7DDE9"/>
<path d="M85.4204 114.137C85.505 114.278 85.5896 114.419 85.5896 114.588C85.6461 115.717 86.5205 118.65 87.5642 119.581C88.608 120.54 87.9309 120.766 86.2384 119.976C84.3767 119.102 83.9535 117.212 83.3047 116.563C82.6559 115.914 82.7124 116.168 81.1891 114.504C80.0043 113.234 82.0071 112.134 83.1919 111.88C83.5586 111.796 83.8407 111.88 84.0664 112.19L85.4204 114.137Z" fill="#FFFAE2"/>
<mask id="path-22-inside-1" fill="white">
<path d="M81.7254 20.3148C81.7254 20.3148 81.0484 24.8282 82.3459 26.9156C83.6435 29.0031 83.841 29.3134 83.841 29.3134"/>
</mask>
<path d="M81.7254 20.3148C81.7254 20.3148 81.0484 24.8282 82.3459 26.9156C83.6435 29.0031 83.841 29.3134 83.841 29.3134" fill="#FFFAE2"/>
<path d="M81.7254 20.3148C81.5276 20.2852 81.5276 20.2852 81.5276 20.2853C81.5275 20.2853 81.5275 20.2854 81.5275 20.2855C81.5275 20.2857 81.5275 20.2859 81.5274 20.2862C81.5273 20.2869 81.5272 20.2878 81.527 20.289C81.5267 20.2913 81.5262 20.2948 81.5255 20.2993C81.5242 20.3083 81.5223 20.3214 81.52 20.3386C81.5152 20.373 81.5085 20.4233 81.5004 20.488C81.4842 20.6172 81.4626 20.8037 81.4407 21.0338C81.3972 21.4937 81.3526 22.1293 81.3491 22.8314C81.3455 23.533 81.3828 24.3049 81.5043 25.0364C81.6254 25.7657 81.8322 26.468 82.1761 27.0212L82.5158 26.8101C82.2109 26.3195 82.0158 25.6749 81.8989 24.9709C81.7823 24.269 81.7456 23.5212 81.7491 22.8335C81.7525 22.1463 81.7962 21.5231 81.839 21.0715C81.8603 20.8459 81.8815 20.6634 81.8972 20.5377C81.9051 20.4748 81.9117 20.4262 81.9162 20.3934C81.9185 20.377 81.9202 20.3646 81.9214 20.3564C81.922 20.3523 81.9224 20.3492 81.9227 20.3472C81.9229 20.3462 81.923 20.3455 81.9231 20.345C81.9231 20.3448 81.9231 20.3447 81.9231 20.3446C81.9231 20.3445 81.9231 20.3445 81.9231 20.3445C81.9231 20.3445 81.9231 20.3445 81.7254 20.3148ZM82.1761 27.0212C82.8249 28.065 83.1988 28.6646 83.4105 29.0033C83.5163 29.1726 83.5816 29.2768 83.6205 29.3387C83.64 29.3697 83.6529 29.3901 83.6609 29.4028C83.6649 29.4091 83.6677 29.4136 83.6695 29.4164C83.6704 29.4179 83.6711 29.4189 83.6716 29.4196C83.6718 29.42 83.6719 29.4202 83.6721 29.4204C83.6721 29.4205 83.6722 29.4206 83.6722 29.4206C83.6722 29.4207 83.6722 29.4207 83.6722 29.4207C83.6722 29.4207 83.6723 29.4207 83.6723 29.4207C83.6723 29.4207 83.6723 29.4207 83.841 29.3134C84.0097 29.206 84.0097 29.206 84.0097 29.206C84.0097 29.206 84.0097 29.206 84.0097 29.206C84.0097 29.206 84.0097 29.206 84.0097 29.206C84.0097 29.206 84.0097 29.2059 84.0096 29.2059C84.0096 29.2057 84.0094 29.2055 84.0092 29.2052C84.0089 29.2046 84.0083 29.2037 84.0074 29.2023C84.0057 29.1996 84.003 29.1954 83.9991 29.1892C83.9912 29.1767 83.9785 29.1566 83.9592 29.1258C83.9205 29.0643 83.8554 28.9605 83.7497 28.7913C83.5382 28.453 83.1646 27.8537 82.5158 26.8101L82.1761 27.0212Z" fill="black" mask="url(#path-22-inside-1)"/>
<path d="M85.0041 31.2297L85.0041 31.2296L85.0015 31.2312C84.6508 31.447 84.2459 31.5548 83.8692 31.5548C83.1118 31.5548 82.3575 31.1763 81.9538 30.4497L81.947 30.4375L81.9403 30.4308C81.9395 30.4297 81.9361 30.4249 81.9288 30.4137C81.9182 30.3974 81.9028 30.373 81.8808 30.3375C81.8586 30.3018 81.8303 30.2559 81.7941 30.1972C81.7583 30.1393 81.715 30.0689 81.6623 29.9838C81.4506 29.6415 81.0908 29.063 80.4842 28.1037C79.6524 26.7727 79.371 24.9611 79.343 23.3598L79.3429 23.3579C79.2868 21.7859 79.4554 20.4393 79.5387 19.9949L79.5388 19.9949L79.5392 19.9918C79.7284 18.7756 80.8633 17.9118 82.1051 18.1007C83.321 18.2899 84.1846 19.4245 83.9961 20.6659C83.882 21.3511 83.8538 22.1473 83.8538 22.882C83.8538 23.6466 83.9103 24.387 84.0249 24.9322C84.0817 25.2438 84.1687 25.5419 84.2929 25.7289C84.9553 26.7859 85.3358 27.3989 85.5506 27.7475C85.6581 27.9219 85.724 28.0301 85.7631 28.0946L85.8033 28.1613L85.8116 28.1753L85.8134 28.1784L85.8138 28.179L85.8138 28.1792L85.8138 28.1792L85.8141 28.1796C86.4348 29.232 86.0839 30.6088 85.0041 31.2297Z" fill="#FFFAE2" stroke="black" stroke-width="0.2"/>
<path d="M76.3936 57.1552C76.8731 50.4134 74.6164 33.6857 73.4599 27.0284C73.2906 26.0129 74.0522 25.082 75.096 25.082H88.9464C89.6798 25.082 90.3568 25.5898 90.5543 26.295C92.134 32.3317 93.1495 57.127 93.1495 57.127H76.3936V57.1552Z" fill="#E8E8E8"/>
<path d="M99.271 43.1357C99.0453 41.8663 97.4938 38.6223 95.7731 35.2373C93.9395 31.6548 91.8803 27.8748 90.9212 26.1823C90.3852 25.2232 89.1723 24.8847 88.2132 25.3925C87.2541 25.9284 86.9156 27.1414 87.4233 28.1005C88.8902 30.7521 90.3852 33.5447 91.711 36.0553C93.2061 38.9326 94.6447 40.6815 95.2371 42.092C94.1652 43.0228 91.4854 43.1075 89.3697 42.9664C88.7773 42.91 86.5207 42.7408 85.0256 44.123C84.4332 44.659 83.7562 45.6463 83.8126 47.1977C83.869 48.2697 84.0101 48.6928 84.9692 49.1723C85.3641 49.3698 85.8719 49.398 86.295 49.3698C87.3951 49.2287 87.4798 48.6364 87.4798 47.367C87.4798 46.4643 87.9593 45.5616 87.9593 45.5616C87.9593 45.5616 91.1751 46.3515 93.8549 46.69C96.5347 47.0285 97.6349 46.4925 98.6222 45.3924C99.1863 44.7436 99.412 43.9255 99.271 43.1357Z" fill="#FFFAE2"/>
<path d="M77.1271 68.0439C77.1271 68.0439 75.0961 64.3204 76.3937 57.1554H93.1214C93.1214 57.1554 93.347 62.5997 92.9803 68.0439H77.1271Z" fill="#3A63A9"/>
<path d="M95.7446 35.2373L93.7982 35.6322L91.7107 36.0554C90.4131 33.5448 88.8899 30.7239 87.423 28.1005C86.8871 27.1414 87.2538 25.9285 88.2129 25.3925C89.172 24.8565 90.3849 25.2233 90.9209 26.1823C91.8518 27.8749 93.911 31.6548 95.7446 35.2373Z" fill="#FFFAE2"/>
<path d="M76.9298 26.6619C76.6759 25.5899 75.5758 24.9411 74.5321 25.2232C69.7366 26.408 66.408 27.4799 64.0949 28.4672C58.7634 30.7239 58.8198 32.3882 58.8198 33.2345C58.8481 34.1936 59.0455 36.0835 70.5264 40.2584C70.5264 40.5969 70.1597 41.8945 69.934 42.3177C69.3981 43.2768 69.9623 44.2076 70.5264 45.1385C70.7239 45.4488 71.1752 45.8437 71.7112 45.8437C72.4164 45.8437 73.2909 44.9411 73.4037 44.2076C73.8268 41.5278 73.7704 39.9481 73.6294 39.6378C73.6294 39.6096 73.6012 39.5814 73.6012 39.5532C73.5448 39.4686 73.5165 39.384 73.4601 39.2993C73.4319 39.2429 73.3755 39.2147 73.3473 39.1583C73.2909 39.1019 73.2627 39.0455 73.2062 39.0172C73.1216 38.9326 73.037 38.8762 72.9524 38.8198C72.9242 38.8198 72.9242 38.7916 72.896 38.7916C72.7549 38.707 72.6139 38.6223 72.4728 38.5659C68.58 36.958 64.9411 34.3628 63.3332 33.2345C63.8974 32.9242 64.6872 32.5293 65.6745 32.1625C68.1287 31.1752 71.7394 30.0187 75.4347 29.116C76.5349 28.8057 77.1837 27.7338 76.9298 26.6619Z" fill="#FFFAE2"/>
<path d="M96.0551 34.3628L93.3752 34.8705L91.2878 35.2654L89.5107 35.6039C87.2258 31.1188 86.6898 30.1033 86.6052 28.58C86.5205 26.8593 86.9719 25.9848 88.1002 25.3642C89.2286 24.7436 90.639 25.1385 91.2596 26.2669C91.316 26.3515 93.742 29.8212 96.0551 34.3628Z" fill="#E8E8E8"/>
<path d="M103.333 90.1595C103.079 91.7956 102.205 93.5727 100.963 95.7448C98.876 99.3555 95.6884 103.389 92.8111 106.746C90.8083 109.087 88.9747 111.118 87.8182 112.501C87.3104 113.093 86.9155 113.573 86.6898 113.883L84.3203 110.836C85.1948 109.595 86.0128 107.931 87.0283 106.379C87.0566 106.351 87.0848 106.295 87.113 106.267C89.0312 103.361 91.0904 100.089 92.7265 97.0988C92.7829 96.986 92.8393 96.9013 92.8957 96.7885C94.6447 93.6291 95.9423 90.8365 96.1962 89.2004C96.6475 86.2949 92.2751 77.2117 87.9592 69.2005C87.4797 68.2696 86.9719 67.3669 86.4924 66.4924C86.3231 66.1821 86.2385 65.8718 86.2103 65.5333C86.0975 64.0665 87.1694 62.374 88.4952 61.6406C90.1031 60.7379 92.1905 60.2865 93.0932 61.8944C94.9268 65.2231 104.433 83.0227 103.333 90.1595Z" fill="#3A63A9"/>
<path d="M92.8112 106.746C90.8084 109.088 88.9748 111.119 87.8183 112.501C87.6208 110.865 87.4233 109.088 87.2259 107.282C87.1977 106.944 87.1412 106.577 87.113 106.238C89.0312 103.333 91.0905 100.061 92.7266 97.0707C92.8394 100.033 92.8394 103.502 92.8112 106.746Z" fill="#2D548D"/>
<path d="M92.3878 91.0622C91.5697 84.3767 85.9562 66.4078 85.0818 64.4332C84.3483 62.7407 80.2863 62.374 78.5938 63.1356C76.9013 63.8691 76.1396 65.8437 76.873 67.5362C79.1297 72.6701 85.5331 86.4078 86.1819 91.2596C86.5486 94.1651 87.0564 100.004 87.959 104.997C88.6078 108.467 89.2566 111.852 89.7362 114.306C90.1593 116.45 90.1593 116.055 90.1875 116.252L94.1931 115.632C94.1931 115.632 93.3469 98.9606 92.3878 91.0622Z" fill="#3A63A9"/>
<path d="M75.4629 29.0597C71.7676 29.9623 68.1569 31.1189 65.7027 32.1062L64.0667 28.4391C66.3798 27.48 69.7084 26.3798 74.5038 25.1951C75.5758 24.9412 76.6477 25.59 76.9016 26.6337C77.1837 27.7338 76.5349 28.8058 75.4629 29.0597Z" fill="#FFFAE2"/>
<path d="M74.5601 25.1386C75.8295 24.9412 76.7604 25.5618 77.0989 26.8029C77.4374 28.0441 76.5912 29.0032 75.4628 29.652C74.1088 30.4419 73.6293 30.6111 67.9029 32.5857L64.7153 28.1852C72.0496 25.3361 72.4163 25.4489 74.5601 25.1386Z" fill="#E8E8E8"/>
<path d="M84.0949 24.913C83.982 24.913 83.8692 24.913 83.7846 24.913C82.0638 24.913 80.4842 24.3488 79.243 23.3615C79.1866 21.7818 79.3558 20.4278 79.4404 19.9765C79.6379 18.7071 80.8227 17.8044 82.1203 18.0019C83.3896 18.1993 84.2923 19.3841 84.0949 20.6817C83.982 21.3587 83.9538 22.1485 83.9538 22.882C83.8974 23.6154 83.9538 24.3488 84.0949 24.913Z" fill="#FFFAE2"/>
<path d="M90.6261 16.542L90.6261 16.5421C90.163 18.689 89.3369 20.5392 88.1188 21.8512C86.9031 23.1607 85.2934 23.9385 83.2486 23.9385C81.2172 23.9385 79.5649 23.1673 78.3246 21.861C77.0827 20.553 76.2502 18.7041 75.8718 16.5463C75.5399 14.5539 76.3623 12.5746 77.7848 11.0893C79.2076 9.60385 81.2206 8.62371 83.2486 8.62371L83.2492 8.6237C85.3055 8.60981 87.3677 9.59721 88.8078 11.0896C90.2478 12.5819 91.0544 14.5664 90.6261 16.542Z" fill="#FFFAE2" stroke="black" stroke-width="0.2"/>
<path d="M91.2882 116.281L91.2599 116.168C90.1316 109.172 88.4109 98.622 87.5646 91.9648C86.944 87.1129 80.9356 72.7265 78.6789 67.5925C78.6507 67.5643 78.6507 67.5079 78.6507 67.4797C78.6507 67.4515 78.6507 67.4515 78.6225 67.4233C78.2558 66.436 77.1556 62.7689 78.1993 56.9861L78.5378 57.0425C77.4941 62.7406 78.5943 66.3231 78.9328 67.3104C78.9328 67.3386 78.961 67.3669 78.961 67.3951C78.961 67.4233 78.961 67.4515 78.9892 67.4797C81.2459 72.6137 87.2543 87.0565 87.8749 91.9366C88.7494 98.5656 90.4419 109.144 91.5702 116.14L91.5984 116.252L91.2882 116.281Z" fill="#658BC1"/>
<path d="M85.9283 25.1104C85.9283 26.1259 85.5334 27.8184 82.8818 27.8184C80.9636 27.8184 78.5376 27.0003 77.635 25.4489L77.4375 25.1104H85.9283Z" fill="#C8D6DB"/>
<path d="M78.2273 25.1104C78.9325 26.3515 81.0482 27.1414 82.8817 27.1414C84.7153 27.1414 85.2512 26.2387 85.2512 25.1104H78.2273Z" fill="#FFFAE2"/>
<path d="M88.2697 45.9566C88.2697 45.9284 88.3825 44.8 87.1978 43.1639L88.2979 42.5151C89.6801 44.5744 89.5391 46.0412 89.5391 46.1258L88.2697 45.9566Z" fill="#82AACE"/>
<path d="M87.4231 42.5434C88.0437 42.2613 88.8617 42.4023 89.2848 42.8537C89.6798 43.305 89.5105 43.9256 88.8617 44.2077C88.2411 44.4898 87.4231 44.3487 86.9999 43.8974C86.605 43.4178 86.7743 42.8254 87.4231 42.5434Z" fill="#4E7DB0"/>
<path d="M90.5545 11.0343C88.2978 7.39537 82.7407 7.11328 81.6688 7.1697C81.1046 7.19791 79.8634 7.53641 79.3275 8.38267C79.2993 7.79029 79.3275 7.25433 79.3275 7.25433C78.8479 7.84671 78.7633 8.35446 78.8479 8.74938C78.5094 8.29805 78.2838 7.8185 78.2838 7.8185C78.1991 8.43909 78.3684 8.8058 78.6223 9.00326C77.099 9.36997 75.1526 11.5138 75.8296 15.9144C76.1117 17.8326 80.4558 16.3657 81.6688 14.4475C82.4869 15.7733 84.1229 16.0554 84.1229 16.0554C83.5588 15.4912 83.051 14.645 82.6561 13.7987C84.9692 15.2092 88.044 16.7324 88.4107 17.6633C88.4107 17.6633 89.0877 16.1683 88.5799 15.2092C88.5799 15.2092 90.4135 15.6605 90.6391 17.4941C90.6109 17.4376 92.9523 14.9271 90.5545 11.0343Z" fill="#424344"/>
<path d="M85.1528 56.9771L84.8186 57.0311L86.6453 68.3372L86.9795 68.2832L85.1528 56.9771Z" fill="#658BC1"/>
<path d="M86.4641 66.1822L86.4077 65.8437C86.4077 65.8437 87.1129 65.7308 87.4796 65.1949C87.7053 64.8846 87.7617 64.4896 87.7053 64.0383L86.5488 56.8733L86.8873 56.8169L88.0438 63.9819C88.1284 64.5461 88.0438 65.0256 87.7617 65.3923C87.3104 66.0693 86.4923 66.1822 86.4641 66.1822Z" fill="#658BC1"/>
<path d="M75.5476 16.1118C75.2091 16.8453 75.2655 17.6351 75.5758 18.3121C75.9425 19.102 77.0991 19.0455 77.4376 18.2557L78.3967 16.1118C78.7634 15.322 78.03 14.4475 77.1837 14.6732C76.4785 14.8989 75.8579 15.4066 75.5476 16.1118Z" fill="#FFFAE2"/>
</svg>
