<svg width="65" height="65" viewBox="0 0 65 65" fill="none" xmlns="http://www.w3.org/2000/svg">
<ellipse cx="32" cy="32.5" rx="26" ry="25.5" fill="#FF5757" fill-opacity="0.15"/>
<ellipse cx="32" cy="32.5" rx="26" ry="25.5" fill="url(#paint0_linear)"/>
<path opacity="0.5" d="M42.7104 40.885L32.5 34.7939V21.6667" stroke="black" stroke-width="1.5" stroke-linecap="round" stroke-linejoin="round"/>
<path fill-rule="evenodd" clip-rule="evenodd" d="M33.6772 41.7029C40.6158 50.7966 42.8997 53.7898 48.2772 22.5414C48.8103 19.4435 49.4686 16.8687 50.2378 14.7728C55.0245 19.2398 58 25.4985 58 32.4269C58 45.9982 46.5833 57 32.5 57C18.4167 57 7 45.9982 7 32.4269C7 29.1404 7.6695 26.0046 8.88423 23.1393C21.3993 25.6118 28.7242 35.2116 33.6772 41.7029Z" fill="#9F7DFF"/>
<path fill-rule="evenodd" clip-rule="evenodd" d="M33.6772 41.7029C40.6158 50.7966 42.8997 53.7898 48.2772 22.5414C48.8103 19.4435 49.4686 16.8687 50.2378 14.7728C55.0245 19.2398 58 25.4985 58 32.4269C58 45.9982 46.5833 57 32.5 57C18.4167 57 7 45.9982 7 32.4269C7 29.1404 7.6695 26.0046 8.88423 23.1393C21.3993 25.6118 28.7242 35.2116 33.6772 41.7029Z" fill="url(#paint1_linear)"/>
<path fill-rule="evenodd" clip-rule="evenodd" d="M57.5514 32.5013C57.5514 46.3382 46.3362 57.5534 32.4994 57.5534C18.6625 57.5534 7.44727 46.3382 7.44727 32.5013C7.44727 18.6645 18.6625 7.44925 32.4994 7.44925C46.3362 7.44925 57.5514 18.6645 57.5514 32.5013Z" stroke="#6C63FF" stroke-width="2.5" stroke-linecap="round" stroke-linejoin="round"/>
<path fill-rule="evenodd" clip-rule="evenodd" d="M57.5514 32.5013C57.5514 46.3382 46.3362 57.5534 32.4994 57.5534C18.6625 57.5534 7.44727 46.3382 7.44727 32.5013C7.44727 18.6645 18.6625 7.44925 32.4994 7.44925C46.3362 7.44925 57.5514 18.6645 57.5514 32.5013Z" stroke="url(#paint2_linear)" stroke-width="2.5" stroke-linecap="round" stroke-linejoin="round"/>
<defs>
<linearGradient id="paint0_linear" x1="35.9245" y1="1.22642" x2="24.1146" y2="71.0674" gradientUnits="userSpaceOnUse">
<stop stop-color="white"/>
<stop offset="1" stop-color="white" stop-opacity="0"/>
</linearGradient>
<linearGradient id="paint1_linear" x1="74.6852" y1="-6.45872" x2="33.8593" y2="57.4252" gradientUnits="userSpaceOnUse">
<stop offset="0.141104" stop-color="#FF2020"/>
<stop offset="1" stop-color="white" stop-opacity="0"/>
</linearGradient>
<linearGradient id="paint2_linear" x1="130.985" y1="-14.2803" x2="2.46219" y2="40.3788" gradientUnits="userSpaceOnUse">
<stop stop-color="white"/>
<stop offset="0.635439" stop-color="#FF5757" stop-opacity="0.351016"/>
<stop offset="1" stop-color="white" stop-opacity="0"/>
</linearGradient>
</defs>
</svg>
