<svg width="240" height="240" viewBox="0 0 240 240" fill="none" xmlns="http://www.w3.org/2000/svg">
<path d="M33.2343 141.872C33.2343 143.156 32.2968 144.234 31.078 144.234C29.9061 144.234 28.9218 143.156 28.9218 141.872C28.9218 140.588 29.8593 139.51 31.078 139.51C32.2968 139.561 33.2343 140.588 33.2343 141.872Z" fill="#87CBF6"/>
<path d="M19.828 141.256C16.828 141.256 14.3905 138.585 14.3905 135.299C14.3905 132.012 16.828 129.342 19.828 129.342C22.828 129.342 25.2655 132.012 25.2655 135.299C25.2655 138.585 22.828 141.256 19.828 141.256ZM19.828 132.474C18.3749 132.474 17.2499 133.758 17.2499 135.299C17.2499 136.839 18.4218 138.123 19.828 138.123C21.2811 138.123 22.4061 136.839 22.4061 135.299C22.4061 133.758 21.2811 132.474 19.828 132.474Z" fill="#51B6FF"/>
<path d="M176.156 24.7355H174.375V26.7383C174.375 27.6627 173.719 28.3816 172.875 28.3816C172.031 28.3816 171.375 27.6627 171.375 26.7383V24.7355H169.547C168.703 24.7355 168.047 24.0166 168.047 23.0922C168.047 22.1679 168.703 21.4489 169.547 21.4489H171.375V19.4462C171.375 18.5218 172.031 17.8029 172.875 17.8029C173.719 17.8029 174.375 18.5218 174.375 19.4462V21.4489H176.203C177.047 21.4489 177.703 22.1679 177.703 23.0922C177.656 24.0166 177 24.7355 176.156 24.7355Z" fill="#87CBF6"/>
<path d="M190.875 14.3622C190.875 15.6461 189.937 16.7245 188.719 16.7245C187.547 16.7245 186.562 15.6974 186.562 14.3622C186.562 13.0784 187.547 12 188.719 12C189.891 12 190.875 13.0271 190.875 14.3622Z" fill="#3864FF"/>
<path d="M79.9218 73.9219C73.4531 57.7031 76.7812 38.5312 89.9062 25.4062C96.2343 19.0781 103.969 15 112.125 13.2656L116.953 35.1562C106.781 37.3594 99.1874 46.4062 99.1874 57.2344C99.1874 60.1875 99.7499 63 100.781 65.625L79.9218 73.9219Z" fill="#3864FF"/>
<path d="M89.9061 89.0625C89.578 88.7344 89.203 88.3594 88.8749 87.9844L105.234 72.6562C109.359 77.0625 115.219 79.7812 121.734 79.7812C134.203 79.7812 144.328 69.6562 144.328 57.1875C144.328 48.2812 139.219 40.5938 131.719 36.9375L141.656 16.8281C145.969 18.9375 150 21.7969 153.562 25.3594C171.141 42.9375 171.141 71.4844 153.562 89.0625C136.031 106.641 107.484 106.641 89.9061 89.0625Z" fill="white"/>
<path d="M121.781 34.6407C120.094 34.6407 118.5 34.8282 116.953 35.1563L112.172 13.2657C122.016 11.1094 132.469 12.2813 141.703 16.875L131.766 36.9844C128.766 35.4375 125.344 34.6407 121.781 34.6407Z" fill="#87CBF6"/>
<path d="M88.8749 87.9844C84.9374 83.7656 81.9374 78.9844 79.9218 73.9219L100.781 65.625C101.812 68.25 103.359 70.6406 105.281 72.7031L88.8749 87.9844Z" fill="#C1E4EE"/>
<path d="M224.391 47.2031V198.047C224.391 200.578 222.328 202.641 219.797 202.641H123.328C120.797 202.641 118.734 200.578 118.734 198.047V47.2031C118.734 44.6719 120.797 42.5625 123.328 42.5625H219.75C222.328 42.5625 224.391 44.625 224.391 47.2031Z" fill="#3864FF"/>
<path d="M108.094 206.953H235.031C236.203 206.953 237.187 206.016 237.187 204.797C237.187 203.625 236.25 202.641 235.031 202.641H108.094C106.922 202.641 105.937 203.578 105.937 204.797C105.937 206.016 106.922 206.953 108.094 206.953Z" fill="#E2E2E1"/>
<path d="M224.391 47.1563V58.4062H118.734V47.1563C118.734 44.625 120.797 42.5156 123.328 42.5156H219.75C222.328 42.5625 224.391 44.625 224.391 47.1563Z" fill="#3864FF"/>
<path d="M171.562 198.656C169.172 198.656 167.25 196.734 167.25 194.344C167.25 191.953 169.172 190.031 171.562 190.031C173.953 190.031 175.875 191.953 175.875 194.344C175.922 196.734 173.953 198.656 171.562 198.656Z" fill="#E6F2EA"/>
<path d="M130.922 52.125C129.937 52.125 129.14 51.3281 129.14 50.3438C129.14 49.3594 129.937 48.5625 130.922 48.5625C131.906 48.5625 132.703 49.3594 132.703 50.3438C132.656 51.3281 131.859 52.125 130.922 52.125Z" fill="#E6F2EA"/>
<path d="M136.5 52.125C135.515 52.125 134.719 51.3281 134.719 50.3438C134.719 49.3594 135.515 48.5625 136.5 48.5625C137.484 48.5625 138.281 49.3594 138.281 50.3438C138.281 51.3281 137.484 52.125 136.5 52.125Z" fill="#E6F2EA"/>
<path d="M222.75 58.4062H120.375V185.391H222.75V58.4062Z" fill="#D2EBF7"/>
<path d="M138.699 100.969V85.9219H104.808V100.969H138.699Z" fill="#51B6FF"/>
<path d="M159.38 139.258V124.211H125.49V139.258H159.38Z" fill="#51B6FF"/>
<path d="M149.063 120.137V105.09H115.173V120.137H149.063Z" fill="#51B6FF"/>
<path d="M216.891 63.75H125.484V80.8594H216.891V63.75Z" fill="#EDF6F4"/>
<path d="M214.125 66.1875H201.984V78.3281H214.125V66.1875Z" fill="#D2E8F2"/>
<path d="M157.687 66.9375H131.39V69.2812H157.687V66.9375Z" fill="#ACD8C8"/>
<path d="M157.687 71.1094H131.39V73.4531H157.687V71.1094Z" fill="#ACD8C8"/>
<path d="M149.109 75.2812H131.39V77.625H149.109V75.2812Z" fill="#ACD8C8"/>
<path d="M152.484 144.891H125.484V171.891H152.484V144.891Z" fill="#51B6FF"/>
<path d="M144.955 164.447C148.25 161.152 148.25 155.809 144.955 152.514C141.66 149.219 136.318 149.219 133.023 152.514C129.728 155.809 129.728 161.152 133.023 164.447C136.318 167.742 141.66 167.742 144.955 164.447Z" fill="#3864FF"/>
<path d="M145.406 158.484C145.406 160.594 144.375 162.469 142.781 163.641C142.313 163.969 141.797 164.297 141.234 164.484C141 164.578 140.719 164.672 140.484 164.719C140.344 164.766 140.156 164.766 140.016 164.813C139.688 164.859 139.359 164.906 139.031 164.906C138.375 164.906 137.719 164.813 137.109 164.625C134.484 163.828 132.609 161.391 132.609 158.484C132.609 157.5 132.844 156.516 133.266 155.672C133.781 154.641 134.531 153.75 135.469 153.141C135.703 153 135.938 152.859 136.172 152.719C136.688 152.437 137.25 152.25 137.859 152.156C138.234 152.063 138.656 152.062 139.031 152.062C141.75 152.062 144.094 153.75 144.984 156.141C145.219 156.891 145.406 157.641 145.406 158.484Z" fill="#EFF4F4"/>
<path d="M138.984 159.234C138.563 159.234 138.234 158.906 138.234 158.484V154.359C138.234 153.937 138.563 153.609 138.984 153.609C139.406 153.609 139.734 153.937 139.734 154.359V158.484C139.734 158.906 139.406 159.234 138.984 159.234Z" fill="#C1D6CF"/>
<path d="M138.984 159.234C138.75 159.234 138.516 159.094 138.375 158.906C138.141 158.578 138.281 158.109 138.609 157.875L140.719 156.516C141.047 156.281 141.516 156.422 141.75 156.75C141.984 157.078 141.844 157.547 141.516 157.781L139.406 159.141C139.266 159.188 139.125 159.234 138.984 159.234Z" fill="#C1D6CF"/>
<path d="M216.88 178.057V173.697L125.474 173.697V178.057L216.88 178.057Z" fill="#67BEFB"/>
<path d="M223.734 84.1875V68.2969C224.859 68.2969 225.797 69.2344 225.797 70.3594V82.1719C225.797 83.2969 224.859 84.1875 223.734 84.1875Z" fill="#3864FF"/>
<path d="M223.734 101.953V86.0625C224.859 86.0625 225.797 87 225.797 88.125V99.9375C225.797 101.016 224.859 101.953 223.734 101.953Z" fill="#3864FF"/>
<path opacity="0.3" d="M179.766 58.4062L120.375 117.797V85.875L147.844 58.4062H179.766Z" fill="#F6FBFD"/>
<path opacity="0.3" d="M201.984 58.4062L120.375 140.016V124.078L186.047 58.4062H201.984Z" fill="#F6FBFD"/>
<path opacity="0.3" d="M141.562 149.813V163.5C141.562 164.062 141.187 164.578 140.672 164.719V202.594H123.375C120.844 202.594 118.781 200.531 118.781 198V121.922H137.484C139.265 121.922 140.672 123.375 140.672 125.109V148.594C141.187 148.781 141.562 149.25 141.562 149.813Z" fill="#385F82"/>
<path d="M36.4218 227.812H137.015C138.187 227.812 139.172 226.875 139.172 225.656C139.172 224.484 138.234 223.5 137.015 223.5H36.4218C35.2499 223.5 34.2655 224.438 34.2655 225.656C34.3124 226.875 35.2499 227.812 36.4218 227.812Z" fill="#E2E2E1"/>
<rect x="168" y="102" width="3" height="49" fill="#EEEEEE" stroke="#AAAAAA" stroke-width="2"/>
<rect x="180" y="123" width="4" height="28" fill="#EEEEEE" stroke="#AAAAAA" stroke-width="2"/>
<rect x="192" y="132" width="3" height="19" fill="#EEEEEE" stroke="#AAAAAA" stroke-width="2"/>
<rect x="216" y="139" width="3" height="12" fill="#EEEEEE" stroke="#AAAAAA" stroke-width="2"/>
<rect x="203" y="99" width="5" height="52" fill="#E0EAFF" stroke="#51B6FF" stroke-width="2"/>
<rect x="0.1" y="0.1" width="239.8" height="239.8" stroke="black" stroke-width="0.2"/>
</svg>
